<?xml version="1.0" standalone="no"?>
<!DOCTYPE svg PUBLIC "-//W3C//DTD SVG 1.1//EN" "http://www.w3.org/Graphics/SVG/1.1/DTD/svg11.dtd">
<svg xmlns="http://www.w3.org/2000/svg">
<metadata>Copyright (C) 2017 by original authors @ fontello.com</metadata>
<defs>
<font id="fontello" horiz-adv-x="1000" >
<font-face font-family="fontello" font-weight="400" font-stretch="normal" units-per-em="1000" ascent="850" descent="-150" />
<missing-glyph horiz-adv-x="1000" />
<glyph glyph-name="bar-stack" unicode="&#xe800;" d="M175 629l83 0c12 0 21-9 21-21l0-187c0-12-9-21-21-21l-83 0c-11 0-21 9-21 21l0 187c0 12 10 21 21 21z m0-275l83 0c12 0 21-9 21-21l0-187c0-12-9-21-21-21l-83 0c-11 0-21 9-21 21l0 187c0 12 10 21 21 21z m167 171l83 0c12 0 21-9 21-21l0-187c0-12-9-21-21-21l-83 0c-12 0-21 9-21 21l0 187c0 12 9 21 21 21z m0-275l83 0c12 0 21-9 21-21l0-187c0-12-9-21-21-21l-83 0c-12 0-21 9-21 21l0 187c0 12 9 21 21 21z m166 350l84 0c11 0 21-9 21-21l0-187c0-12-10-21-21-21l-84 0c-11 0-20 9-20 21l0 187c0 12 9 21 20 21z m0-275l84 0c11 0 21-9 21-21l0-187c0-12-10-21-21-21l-84 0c-11 0-20 9-20 21l0 187c0 12 9 21 20 21z m167 325l83 0c12 0 21-9 21-21l0-187c0-12-9-21-21-21l-83 0c-11 0-21 9-21 21l0 187c0 12 10 21 21 21z m0-275l83 0c12 0 21-9 21-21l0-187c0-12-9-21-21-21l-83 0c-11 0-21 9-21 21l0 187c0 12 10 21 21 21z m167 204l83 0c12 0 21-9 21-21l0-187c0-12-9-21-21-21l-83 0c-12 0-21 9-21 21l0 187c0 12 9 21 21 21z m0-275l83 0c12 0 21-9 21-21l0-187c0-12-9-21-21-21l-83 0c-12 0-21 9-21 21l0 187c0 12 9 21 21 21z m-800 504l0-916 916 0 0-42-937 0c-12 0-21 9-21 21l0 937 42 0z m-42 0l0 21c0 12 9 21 21 21 11 0 21-9 21-21l0-21-42 0z m958-916l21 0c12 0 21-10 21-21 0-12-9-21-21-21l-21 0 0 42z" horiz-adv-x="1000" />

<glyph glyph-name="dataset-o" unicode="&#xe801;" d="M408 850c-232 0-408-77-408-180l0-620c0-103 176-180 408-180 233 0 409 77 409 180l0 620c0 103-176 180-409 180l0 0z m-359-269c69-55 200-91 359-91 158 0 291 36 360 91l0-137c-26-59-166-116-360-116-191 0-331 57-359 116l0 137z m0-198c67-57 200-93 359-93 160 0 291 38 360 93l0-145c-26-59-166-116-360-116-191 0-331 57-359 116l0 145 0 0z m283 414c24 2 50 4 76 4 27 0 53-2 77-4 170-14 283-73 283-127 0-61-147-129-360-129-212 0-359 68-359 129 0 54 113 113 283 127z m76-877c-212 0-359 69-359 130l0 125c67-57 200-93 359-93 160 0 291 38 360 93l0-125c0-61-147-130-360-130z" horiz-adv-x="818" />

<glyph glyph-name="dashboard-o" unicode="&#xe802;" d="M1139 56l0 0c-5-14-7-18-15-33 0 0 0 0 0-1-7-11-20-18-34-18-22 0-39 18-39 39 0 7 1 13 4 18 22 57 35 119 35 184 0 276-224 500-500 500-277 0-500-224-500-500 0-65 12-126 34-183 4-6 6-13 6-21 0-22-18-40-39-40-16 0-29 9-36 22 0 0 0 0 0 0-8 15-10 20-15 33l0 0c-19 58-29 119-29 184 0 319 259 578 579 578 319 0 578-259 578-578 0-65-10-126-29-184l0 0z m-1047-109l977 0c22 0 40-17 40-39l0 0c0-22-18-40-40-40l-977 0c-21 0-39 18-39 40l0 0c0 22 18 39 39 39z m517 310l185 185c15 16 40 16 55 0l1 0c15-15 15-40 0-56l-190-189c0-2 0-3 0-4 0-37-30-66-66-66-36 0-66 29-66 66 0 36 30 66 66 66 5 0 10-1 15-2l0 0z" horiz-adv-x="1211" />

<glyph glyph-name="dashboard" unicode="&#xe803;" d="M592 293c-5 1-10 2-15 2-36 0-66-29-66-66 0-36 30-66 66-66 36 0 66 30 66 66 0 1 0 3 0 4l189 189c15 15 15 40 0 56-16 15-41 15-56 0l-184-185z m-515-314l974 0c22 0 39-18 39-39 0-22-17-40-39-40l-974 0c-22 0-39 18-39 40 0 21 17 39 39 39z m-23 65c-8 4-14 16-19 27-24 64-35 133-35 205 0 317 257 574 574 574 317 0 574-257 574-574 0-70-12-136-35-198-5-14-9-23-17-29-8-7-21-11-32-11-434 0-761 0-981 0-10 0-20 1-29 6z" horiz-adv-x="1158" />

<glyph glyph-name="home" unicode="&#xe804;" d="M414-150l-235 0c-38 0-68 30-68 68l0 387-46 0c-25 0-45 20-45 45 0 13 5 26 15 34l457 402c35 31 86 31 120 0l457-402c19-16 21-45 4-64-8-10-21-15-34-15l-55 0 0-387c0-38-31-68-69-68l-229 0 0 341c0 25-20 45-45 45l-182 0c-25 0-45-20-45-45l0-341 0 0z" horiz-adv-x="1091" />

<glyph glyph-name="home-o" unicode="&#xe805;" d="M341-94l-136 0c-26 0-46 20-46 45l0 407-53 0 397 360c26 23 65 24 91 1l415-361-80 0 0-407c0-25-21-45-46-45l-133 0 0-56 161 0c38 0 68 30 68 68l0 387 56 0c13 0 25 5 34 15 16 19 15 48-4 64l-457 402c-34 31-86 31-120 0l-457-402c-10-8-16-21-16-34 0-25 21-45 46-45l45 0 0-387c0-38 31-68 69-68l166 0 0 56 0 0z m114 399l181 0c63 0 114-51 114-114l0-341-409 0 0 341c0 63 51 114 114 114z m0-69c-26 0-46-20-46-45l0-341 273 0 0 341c0 25-20 45-46 45l-181 0z" horiz-adv-x="1091" />

<glyph glyph-name="balance" unicode="&#xe806;" d="M500 422l0 392c0 20-16 36-36 36-19 0-35-16-35-36l0-392 71 0z m0-289l0-247c0-20-16-36-36-36-19 0-35 16-35 36l0 247 71 0z m-333 431l-72 0 0 259c0 15 16 27 36 27 20 0 36-12 36-27l0-259z m0-288l0-380c0-26-16-46-36-46-20 0-36 20-36 46l0 380 72 0z m666 384l-71 0 0 154c0 20 16 36 36 36 19 0 35-16 35-36l0-154z m0-286l0-488c0-20-16-36-35-36-20 0-36 16-36 36l0 488 71 0z m-785 143l166 0c27 0 48-22 48-48l0-95c0-26-21-48-48-48l-166 0c-27 0-48 22-48 48l0 95c0 26 21 48 48 48l0 0z m333-143l167 0c26 0 47-21 47-48l0-95c0-26-21-48-47-48l-167 0c-26 0-48 22-48 48l0 95c0 27 22 48 48 48z m333 238l167 0c26 0 48-21 48-48l0-95c0-26-22-48-48-48l-167 0c-26 0-47 22-47 48l0 95 0 0c0 27 21 48 47 48z" horiz-adv-x="952" />

<glyph glyph-name="table-edit" unicode="&#xe807;" d="M949 386c-54 48-126 78-205 78-53 0-102-13-145-36l-289 0 0-185 136 0c-6-21-10-42-12-65l-124 0 0-185 167 0c16-25 35-48 57-69l-434 0c-55 0-100 45-100 101l0 725c0 55 45 100 100 100l749 0c56 0 100-45 100-100l0-364 0 0z m-639 247l0-145 570 0 0 145-570 0z m-241 0l0-145 171 0 0 145-171 0z m0-200l0-185 171 0 0 185-171 0z m0-255l0-155c0-16 14-30 30-30l141 0 0 185-171 0z m947 21l-2 14-44 15c-4 12-9 24-15 35l21 41-8 12c-18 24-38 45-62 62l-12 8-42-20c-11 5-22 10-34 14l-15 44-14 2c-16 3-30 4-44 4-13 0-27-1-44-4l-14-2-15-44c-12-4-24-9-35-15l-41 21-12-8c-24-17-44-38-62-62l-8-12 21-41c-6-12-11-23-15-35l-44-15-2-14c-3-16-4-31-4-44 0-14 1-28 4-44l2-14 44-15c4-12 9-24 15-35l-21-41 9-12c8-13 18-24 28-34 9-9 20-18 33-28l12-8 42 21c11-6 22-11 34-15l15-44 15-2c15-3 30-4 43-4 14 0 28 1 44 4l14 2 15 44c12 4 23 9 35 14l41-20 12 8c13 9 24 19 34 28 9 10 19 21 28 34l8 12-21 41c6 12 11 23 15 35l44 15 2 15c3 15 4 30 4 43 0 13-1 28-4 44z m-54-45c0-8 0-16-1-24l-20-7-18-6-5-18c-3-10-7-20-12-29l-9-17 18-35c-6-7-11-12-16-18-5-5-11-10-18-15l-35 17-16-8c-10-5-20-10-30-13l-18-5-6-18-6-20c-9-1-16-1-24-1-8 0-15 0-24 1l-6 20-6 18-18 5c-10 4-20 8-30 13l-16 8-17-8-19-10c-6 6-12 11-17 16-6 6-11 12-16 18l18 35-9 17c-5 9-9 19-12 29l-6 18-37 13c-1 8-2 16-2 23 0 8 1 16 2 24l37 12 6 18c3 10 7 20 12 30l9 16-9 17-9 19c10 12 21 23 33 33l36-18 16 9c10 5 20 9 30 12l18 6 6 18 6 19c9 1 16 2 24 2 7 0 15-1 23-2l13-37 18-5c10-4 20-8 30-13l16-8 35 17c12-10 24-21 34-33l-18-35 9-17c5-9 9-19 12-30l5-17 18-6 20-7c1-8 1-16 1-23z m-217 106c-58 0-105-47-105-105 0-58 47-105 105-105 58 0 105 47 105 105 0 58-47 105-105 105z m38-143c-10-10-23-16-38-16-14 0-28 6-38 16-10 10-16 24-16 38 0 14 6 28 16 38 10 10 24 16 38 16 15 0 28-6 38-16 10-10 16-24 16-38 0-14-6-28-16-38z" horiz-adv-x="1050" />

<glyph glyph-name="scientist-o" unicode="&#xe808;" d="M915 816l-790 0c-42 0-75-33-75-75l0-790c0-42 33-75 75-75l790 0c42 0 76 33 76 75l0 790c-1 42-34 75-76 75z m0-865l-790 0 0 790 790 0 0-790z m-719 368c8-8 17-11 27-11 10 0 19 3 27 11l147 148c15 14 15 38 0 53l-147 149c-15 15-39 15-54 0-14-15-15-38 0-53l121-123-121-121c-15-15-15-39 0-53z m188 27c0-20 17-37 38-37l209-1c21 0 38 17 38 38 0 20-17 37-38 37l-209 0c-21 0-38-16-38-37z" horiz-adv-x="1000" />

<glyph glyph-name="connection" unicode="&#xe809;" d="M480 177c-1 0-3 0-4 0-5-1-10-1-15-1-8-1-16-1-24-1-14-1-28-1-42-1-14 0-28 0-41 1-8 0-16 1-24 1-5 0-11 0-15 1-11 1-22 2-32 3-2 0-4 0-6 0-12 1-23 3-34 5 0 0-1 0-1 0-58 8-107 21-146 37 0 0 0 0 0 0-7 3-14 6-20 9-1 0-2 0-3 1-5 2-11 5-16 8-1 1-2 1-3 2-5 3-9 5-12 8-2 1-3 2-5 3-3 3-6 5-9 7-1 2-3 3-4 4-3 3-5 5-6 7-2 2-3 3-4 5-2 2-3 4-4 6-1 2-2 3-2 5-1 2-2 4-2 6-1 3-2 6-2 8 0 2 0 4 1 6 0 3 0 5-1 8l0 126c1-1 1-1 2-1 3-4 7-7 12-10 64-48 192-86 377-86 185 0 313 37 377 85 5 4 10 8 14 12l0 0 0-84c-16 3-33 4-50 4-119 0-220-77-256-184l0 0z m13-203c-31-3-64-4-98-4-221 0-381 63-390 122 0 0-1 1-1 2l0 143c1 0 1-1 2-1 3-4 7-7 12-10 64-48 192-86 377-86 27 0 52 1 76 2-3-16-5-33-5-51 0-42 10-81 27-117l0 0z m293 671l0-126c-1-3-1-5 0-8 0-2 0-4 0-6 0-2-1-5-1-8-1-2-1-4-2-6-1-2-2-3-3-5-1-2-2-4-4-6-1-2-2-3-3-5-2-2-4-4-6-7-2-1-3-2-5-4-3-2-6-5-9-7-1-1-3-2-4-3-4-3-8-5-12-8-2-1-3-1-4-2-5-3-10-6-16-8-1-1-2-1-2-1-7-3-13-6-20-9-1 0-1 0-1 0-39-16-88-29-146-37 0 0 0 0 0 0-12-2-23-4-35-5-2 0-4 0-6 0-10-1-20-2-31-3-5-1-10-1-15-1-8-1-16-1-24-1-14-1-28-1-42-1-14 0-28 0-41 1-8 0-16 1-24 1-5 0-11 0-15 1-11 1-22 2-32 3-2 0-4 0-6 0-12 1-23 3-34 5 0 0-1 0-1 0-58 8-107 21-146 37 0 0 0 0 0 0-7 3-14 6-20 9-1 0-2 0-3 1-5 2-11 5-16 8-1 1-2 1-3 2-5 3-9 5-12 8-2 1-3 2-5 3-3 3-6 5-9 7-1 2-3 3-4 4-3 3-5 5-6 7-2 2-3 3-4 5-2 2-3 4-4 6-1 2-2 3-2 5-1 2-2 4-2 6-1 3-2 6-2 8 0 2 0 4 1 6 0 3 0 5-1 8l0 126c2-2 5-4 7-6 1-1 2-2 3-3 6-4 11-8 17-11 1-1 3-2 4-3 5-3 10-6 16-9 2-1 4-2 6-3 6-3 13-7 20-9 1-1 2-1 3-2 8-3 16-7 25-10 3-1 5-1 8-2 7-3 14-5 21-7 3-1 6-2 8-2 10-3 21-6 31-8 2-1 4-1 5-1 10-2 19-4 30-6 3-1 6-1 10-2 10-1 20-3 30-4 2 0 5-1 7-1 13-2 26-3 40-4 3 0 6-1 10-1 11-1 22-1 33-2 4 0 8 0 12 0 15-1 30-1 45-1 16 0 31 0 45 1 4 0 8 0 13 0 11 1 22 1 33 2 3 0 6 1 10 1 13 1 26 2 39 4 3 0 5 1 8 1 10 1 20 3 29 4 4 1 7 1 11 2 10 2 20 4 29 6 2 0 3 0 5 1 11 2 21 5 31 8 3 0 5 1 8 2 8 2 15 4 22 7 2 1 5 1 7 2 9 3 18 7 26 10 1 1 2 1 3 2 7 2 13 6 19 9 2 1 5 2 7 3 5 3 10 6 15 9 2 1 3 2 4 3 6 3 12 7 17 11 1 1 2 2 4 3 2 2 4 4 6 6z m-391 192c231 0 391-67 391-128 0-60-160-127-391-127-230 0-391 67-391 127 0 61 161 128 391 128z m341-974c-126 0-228 102-228 229 0 126 102 228 228 228 126 0 228-102 228-228 0-127-102-229-228-229z m-67 283l0-163c0-11 9-20 20-20 11 0 19 9 19 20l0 209c0 10-8 19-19 19-1 0-1 0-1 0-5 0-11-2-15-6l-84-84c-8-8-8-20 0-28 4-3 9-5 14-5 5 0 10 1 14 5l52 53 0 0z m134-117l0 163c0 10-9 19-19 19-11 0-20-9-20-19l0-209c0-11 9-20 20-20 0 0 0 0 0 0 6 0 11 2 15 6l84 84c8 8 8 20 0 28-4 4-9 6-14 6-5 0-10-2-14-6l-52-52 0 0z" horiz-adv-x="972" />

<glyph glyph-name="setting-o" unicode="&#xe80a;" d="M966 441l-4 25-78 26c-7 22-15 42-25 62l37 74-16 21c-30 42-67 78-109 109l-21 15-74-37c-19 10-40 19-61 26l-26 77-25 4c-29 5-53 7-77 7-24 0-49-2-78-7l-25-4-26-78c-22-7-43-16-62-25l-73 37-21-16c-42-30-79-66-109-108l-16-22 37-73c-10-20-18-41-25-62l-78-26-4-25c-5-29-7-54-7-78 0-23 2-49 7-77l4-25 78-26c7-21 15-42 25-62l-36-73 15-21c16-22 32-42 50-59 16-17 36-34 59-50l21-16 73 37c20-10 41-18 62-25l26-79 25-4c29-4 54-6 78-6 23 0 48 2 77 6l25 4 26 79c21 7 42 15 62 25l73-37 21 15c23 17 43 33 59 50 18 18 34 37 50 60l15 21-37 73c11 20 19 41 26 62l78 26 4 26c5 28 7 53 7 77 0 23-2 49-7 77z m-70-77l0 0c0-15 0-29-2-45l-38-12-33-12-11-33c-6-20-13-39-23-57l-16-31 33-67c-10-12-19-23-30-33l0 0c-10-10-21-20-33-30l-67 34-31-16c-18-10-37-18-57-24l-33-10-11-34-12-37c-16-2-31-3-45-3-14 0-29 1-45 3l-12 37-11 34-34 10c-20 6-39 14-56 23l-31 17-32-16-35-18c-13 10-24 20-34 30-10 10-20 21-30 33l34 67-17 31c-9 19-17 38-23 57l-10 33-71 24c-2 15-3 30-3 44 0 15 1 29 3 45l71 24 10 33c6 19 14 39 23 57l16 31-15 31-18 36c19 23 40 44 63 63l67-34 31 17c18 9 37 17 57 23l33 11 11 33 13 38c16 1 31 2 45 2 14 0 29-1 44-2l24-71 33-11c20-6 39-13 57-23l31-16 67 33c23-18 44-40 63-63l-33-67 16-30c9-19 17-38 23-58l11-33 33-11 38-13c2-16 3-30 2-44z m-409 185c-103 0-186-83-186-186 0-102 83-185 186-185 102 0 186 83 186 185 0 103-84 186-186 186z m77-263c-21-20-48-32-77-32-29 0-57 12-77 32-21 21-32 48-32 77 0 30 11 57 32 78 20 20 48 32 77 32 29 0 56-12 77-32 20-21 32-48 32-78 0-29-12-56-32-77z" horiz-adv-x="1000" />

<glyph glyph-name="linked-o" unicode="&#xe80b;" d="M614 186c-38-29-85-45-135-45-49 0-93 15-130 40l-81-81c12-21 19-46 19-72 0-79-64-143-143-143-80 0-144 64-144 143 0 80 64 144 144 144 27 0 52-8 74-21l80 80c-29 38-46 85-46 136 0 48 15 93 40 129l-82 83c-20-10-43-16-66-16-80 0-144 64-144 144 0 79 64 143 144 143 79 0 143-64 143-143 0-30-9-57-24-80l79-79c38 29 85 46 137 46 52 0 101-18 139-49l78 78c-17 24-26 53-26 84 0 79 64 143 143 143 79 0 144-64 144-143 0-80-65-144-144-144-22 0-43 5-62 14l-85-83c25-36 39-80 39-127 0-48-15-93-41-130l82-82c20 11 43 17 67 17 79 0 144-64 144-144 0-79-65-143-144-143-79 0-143 64-143 143 0 29 8 56 23 79l-79 79z m-134 12c92 0 166 74 166 166 0 92-74 166-166 166-92 0-166-74-166-166 0-92 74-166 166-166z m-336 422c47 0 86 38 86 86 0 48-39 86-86 86-48 0-86-38-86-86 0-48 38-86 86-86z m-1-682c48 0 87 39 87 87 0 47-39 86-87 86-47 0-86-39-86-86 0-48 39-87 86-87z m672 684c47 0 86 39 86 86 0 48-39 87-86 87-48 0-86-39-86-87 0-47 38-86 86-86z m-2-680c48 0 86 39 86 86 0 48-38 86-86 86-48 0-86-38-86-86 0-47 38-86 86-86z" horiz-adv-x="957" />

<glyph glyph-name="comment" unicode="&#xe80c;" d="M524-148c-12 0-24 6-31 16l-75 105c-243 42-418 222-418 434 0 244 235 443 524 443 289 0 524-199 524-443 0-212-175-392-418-434l-76-105c-7-10-18-16-30-16z m0 924c-248 0-449-166-449-369 0-179 155-332 369-364 10-1 19-7 25-15l55-75 54 75c6 8 15 14 25 15 214 32 370 185 370 364 0 203-202 369-449 369z m-262-443c-41 0-75 33-75 74 0 40 34 74 75 74 41 0 75-34 75-74 0-41-34-74-75-74z m0 74l0 0 0-37 0 37z m524-74c-41 0-75 33-75 74 0 40 34 74 75 74 41 0 75-34 75-74 0-41-34-74-75-74z m0 74l0 0 0-37 0 37z m-262-74c-41 0-75 33-75 74 0 40 34 74 75 74 41 0 75-34 75-74 0-41-34-74-75-74z m0 74l0 0 0-37 0 37z" horiz-adv-x="1048" />

<glyph glyph-name="grid-view" unicode="&#xe80d;" d="M50 300l350 0c28 0 50-22 50-50l0-350c0-28-22-50-50-50l-350 0c-28 0-50 22-50 50l0 350c0 28 22 50 50 50z m75-75c-28 0-50-22-50-50l0-200c0-28 22-50 50-50l200 0c28 0 50 22 50 50l0 200c0 28-22 50-50 50l-200 0z m475 75l350 0c28 0 50-22 50-50l0-350c0-28-22-50-50-50l-350 0c-28 0-50 22-50 50l0 350c0 28 22 50 50 50z m75-75c-28 0-50-22-50-50l0-200c0-28 22-50 50-50l200 0c28 0 50 22 50 50l0 200c0 28-22 50-50 50l-200 0z m-625 625l350 0c28 0 50-22 50-50l0-350c0-28-22-50-50-50l-350 0c-28 0-50 22-50 50l0 350c0 28 22 50 50 50z m75-75c-28 0-50-22-50-50l0-200c0-28 22-50 50-50l200 0c28 0 50 22 50 50l0 200c0 28-22 50-50 50l-200 0z m475 75l350 0c28 0 50-22 50-50l0-350c0-28-22-50-50-50l-350 0c-28 0-50 22-50 50l0 350c0 28 22 50 50 50z m75-75c-28 0-50-22-50-50l0-200c0-28 22-50 50-50l200 0c28 0 50 22 50 50l0 200c0 28-22 50-50 50l-200 0z" horiz-adv-x="1000" />

<glyph glyph-name="linked" unicode="&#xe80e;" d="M614 186c-38-29-85-45-135-45-49 0-93 15-130 40l-81-81c12-21 19-46 19-72 0-79-64-143-143-143-80 0-144 64-144 143 0 80 64 144 144 144 27 0 52-8 74-21l80 80c-29 38-46 85-46 136 0 48 15 93 40 129l-82 83c-20-10-43-16-66-16-80 0-144 64-144 144 0 79 64 143 144 143 79 0 143-64 143-143 0-30-9-57-24-80l79-79c38 29 85 46 137 46 52 0 101-18 139-49l78 78c-17 24-26 53-26 84 0 79 64 143 143 143 79 0 144-64 144-143 0-80-65-144-144-144-22 0-43 5-62 14l-85-83c25-36 39-80 39-127 0-48-15-93-41-130l82-82c20 11 43 17 67 17 79 0 144-64 144-144 0-79-65-143-144-143-79 0-143 64-143 143 0 29 8 56 23 79l-79 79z" horiz-adv-x="957" />

<glyph glyph-name="magnifier" unicode="&#xe80f;" d="M810 104c55-58 108-113 161-170 19-21 16-42 2-54-14-13-35-9-53 7-42 40-74 76-114 119-14 15-29 31-46 50-118-95-252-122-395-91-113 24-196 97-261 190-101 148-90 406 75 559 148 138 410 140 553 29 190-148 245-426 78-639z m25 282c18 184-157 373-363 370-204-2-361-161-363-372-2-196 164-360 364-361 199 0 362 162 362 363z m-74 2c-3-149-137-284-285-288-23 0-43 5-47 32-5 28 14 35 37 41 37 10 76 17 109 35 62 32 96 88 109 156 2 10 4 20 6 30 4 23 11 43 40 39 28-4 31-25 31-45z m-502 61c-8-20-15-29-37-27-17 2-26 15-23 44 5 46 42 97 72 128 30 32 59 53 95 68 20 9 44 5 53-12 9-17 3-34-15-46-15-10-53-24-86-58-33-34-52-78-59-97z" horiz-adv-x="1000" />

<glyph glyph-name="delete" unicode="&#xe810;" d="M129-131c-2 1-3 3-5 5 2-2 3-4 5-5z m-11 6c-1 2-3 3-5 5 2-2 4-3 5-5z m867 821c-8 8-19 12-29 12l-205 0 0 64c0 43-35 78-78 78l-349 0c-44 0-79-35-79-78l0-64-205 0c-22 0-40-18-40-40 0-21 18-39 40-39l35 0 0-691c0-43 35-78 78-78l702 0c43 0 78 35 78 78l0 691 23 0c21 0 40 18 40 39 0 11-4 21-11 28z m-662 76l349 0 0-65-349 0 0 65z m531-834l-701 0 0 691 101 0 600 0 0-691 0 0z m-356 558c-22 0-40-18-40-40l0-370c0-22 18-40 40-40 22 0 40 18 40 40l0 370c0 22-18 40-40 40z m-217 0c-22 0-39-18-39-40l0-370c0-22 17-40 39-40 23 0 40 18 40 40l0 370c0 22-17 40-40 40z m431 0c-23 0-40-18-40-40l0-370c0-22 17-40 40-40 22 0 39 18 39 40l0 370c0 22-17 40-39 40z" horiz-adv-x="1000" />

<glyph glyph-name="dot-3" unicode="&#xe811;" d="M110 460q46 0 78-32t32-78q0-44-32-77t-78-33-78 33-32 77q0 46 32 78t78 32z m350 0q46 0 78-32t32-78q0-44-33-77t-77-33-77 33-33 77q0 46 32 78t78 32z m350 0q46 0 78-32t32-78q0-44-32-77t-78-33-78 33-32 77q0 46 32 78t78 32z" horiz-adv-x="920" />

<glyph glyph-name="discovery" unicode="&#xe812;" d="M500-150c-276 0-500 224-500 500 0 276 224 500 500 500 276 0 500-224 500-500 0-276-224-500-500-500z m2 52c246 0 446 200 446 446 0 246-200 446-446 446-246 0-445-200-445-446 0-246 199-446 445-446z m28 418c4 6 7 12 8 19 2 22-14 42-36 44-15 2-28-5-36-16l-65 47 271 188c5 3 12 2 16-3 2-3 3-7 2-11l-95-315-65 47 0 0z m-64 47c-4-6-7-12-8-19-2-22 14-42 36-44 14-2 28 5 36 16l65-47-271-188c-5-3-13-2-16 3-2 3-3 7-2 11l95 315 65-47 0 0z" horiz-adv-x="1000" />

<glyph glyph-name="pin-chart" unicode="&#xe813;" d="M970 50l0 79c0 22-18 39-39 39-22 0-40-17-40-39l0-79-79 0 0 0c-22 0-39-18-39-40 0-22 17-39 39-39l79 0 0-79c0-22 18-40 40-40 21 0 39 18 39 40l0 79 79 0c22 0 40 17 40 39 0 22-18 40-40 40l-79 0z m-515 786l0-424 424 0c0 234-190 424-424 424z m60-363l0 297c152-25 272-145 298-297l-298 0z m-91-93l0 425c-234 0-424-190-424-425 0-234 190-424 424-424 235 0 425 190 425 424l-425 0z m0-363c-201 0-363 163-363 363 0 180 131 330 303 359l0-419 418 0c-28-172-178-303-358-303z" horiz-adv-x="1091" />

<glyph glyph-name="pin-o" unicode="&#xe814;" d="M267 735c1-7 1-15 1-23l-1-40 31-25 240-190 34-27 41 13c33 11 67 16 101 16 36 0 72-6 106-18 20-7 39-15 57-26l-189-190-48-48-14-15 0 0-190-190c-19 33-33 69-40 107-9 53-5 108 11 158l14 41-27 34-190 240-26 32-40-2c-1 0-3 0-4 0-7 0-13 1-19 2l152 151 0 0z m16 115c-9 0-19-4-26-11l-246-245c-17-17-14-45 6-57 35-24 76-35 117-35 2 0 4 0 7 0l190-240c-42-127-19-271 70-380 8-9 19-14 30-14 10 0 19 4 27 11l230 232 250-250c7-7 16-11 26-11 9 0 18 4 25 11 15 14 15 37 0 52l-249 249 230 232c16 16 15 42-3 57-74 59-163 89-253 89-43 0-85-7-126-20l-240 190c2 43-10 86-34 123-7 11-19 17-31 17l0 0z" horiz-adv-x="1000" />

<glyph glyph-name="play" unicode="&#xe815;" d="M506-150c-276 0-500 224-500 500 0 276 224 500 500 500 276 0 500-224 500-500 0-276-224-500-500-500z m0 906c-225 0-407-182-407-406 0-225 182-407 407-407 224 0 406 182 406 407 0 224-182 406-406 406z m-55-616c-2-1-3-2-5-3-2-1-4-2-6-2-2-1-2-1-3-1-2 0-3 0-4-1-1 0-2 0-3 0-2 0-3 0-4 0-26 0-47 21-47 47l0 312c0 26 21 47 47 47 10 0 19-3 27-8l247-154c14-8 23-24 23-41 0-17-9-32-23-40l-249-156z" horiz-adv-x="1053" />

<glyph glyph-name="refresh" unicode="&#xe816;" d="M767 86l0 1c-72-84-178-137-297-137-216 0-391 175-391 391 0 216 175 391 391 391 175 0 323-115 373-273-1 0-3 1-4 1-53 10-61 13-112 22-19 4-38-5-47-22-11-21-3-48 18-59l175-91c3-2 8-4 12-5 23-4 46 11 51 34l1 6c1 4 2 9 2 13l0 0 0 1c0 4 0 7-1 11-15 244-218 438-467 438-258 0-468-210-468-468 0-259 210-468 468-468 142 0 269 63 355 163l0 0c3 3 6 7 8 11 2 5 3 10 3 16 0 21-18 39-39 39-13 0-24-6-31-15l0 0z" horiz-adv-x="957" />

<glyph glyph-name="back" unicode="&#xe817;" d="M932 483c-78 78-180 120-290 120l-453 0 153 154c21 21 21 55 0 76-21 21-55 21-76 0l-249-249c-10-10-16-23-16-38 0-14 6-28 16-38l241-242c11-10 25-15 39-15 14 0 27 5 38 15 21 21 21 56 0 77l-152 152 459 0c81 0 156-32 213-88 57-57 88-133 88-213l0-260c0-30 25-54 54-54 30 0 55 24 55 54l0 260c0 109-43 212-120 289z" horiz-adv-x="1053" />

<glyph glyph-name="screenshot" unicode="&#xe818;" d="M926 55l-32 0 0 649c0 18-15 32-33 32l-714 0 0 82c0 18-14 32-32 32-18 0-33-14-33-32l0-82-32 0c-18 0-33-14-33-32 0-18 15-32 33-32l32 0 0-650c0-18 15-32 33-32 169 0 297 0 381 0 74 0 185 0 333 0l0-81c0-18 14-33 32-33 18 0 33 15 33 33l0 81 32 0c18 0 33 14 33 32 0 18-15 33-33 33z m-779 0l0 617 682 0 0-617-682 0z m179 389c36 0 65 29 65 65 0 36-29 65-65 65-36 0-65-29-65-65 0-36 29-65 65-65z m453-285l-96 258c-3 6-8 10-15 11-7 1-13-2-17-8l-109-166c-5-8-15-10-23-6l-187 90c-8 4-18 2-23-6l-111-169c-3-6-4-12 0-18 3-6 9-9 15-9l549 0c6 0 12 3 15 7 3 5 4 11 2 16z" horiz-adv-x="1000" />

<glyph glyph-name="share" unicode="&#xe819;" d="M834 184c-57 0-108-30-137-75l-263 187c4 17 7 35 7 54 0 29-6 57-17 83l286 144c30-34 75-56 124-56 91 0 165 74 165 164 0 91-74 165-165 165-90 0-164-74-164-165 0-12 1-24 4-36l-294-148c-40 42-97 69-160 69-121 0-220-99-220-220 0-122 99-221 220-221 74 0 140 37 180 93l270-192c0-4 0-7 0-11 0-91 74-165 164-165 91 0 165 74 165 165 0 91-74 165-165 165z m0 586c47 0 85-38 85-85 0-46-38-84-85-84-46 0-84 38-84 84 0 47 38 85 84 85z m-614-561c-77 0-140 63-140 141 0 77 63 140 140 140 78 0 140-63 140-140 0-78-62-141-140-141z m614-275c-46 0-84 38-84 85 0 47 38 85 84 85 47 0 85-38 85-85 0-47-38-85-85-85z" horiz-adv-x="1000" />

<glyph glyph-name="collaborate" unicode="&#xe81a;" d="M870-9c-45 119-125 206-241 258-12 6-25 11-36 15-2 1-4 2-4 5 0 2 1 4 3 6 76 49 121 117 133 201 13 88-11 165-71 230-54 59-127 91-206 91-79 0-154-33-207-92-58-63-81-137-72-221 11-88 56-158 135-209 1 0 2-2 3-4 0-2 0-3-2-4-2-3-5-4-7-5-12-5-23-9-34-14-87-40-155-101-203-183-27-46-45-98-55-152-2-15 3-27 15-32 5-2 10-3 15-3 9 0 17 4 23 12 4 5 6 12 7 20 17 85 55 156 115 211 77 71 165 107 261 107 32 0 65-4 98-12 107-25 190-88 247-188 21-36 35-78 44-127 3-13 15-23 29-23 2 0 4 1 6 1 15 3 26 18 24 33-5 29-12 55-20 79z m-422 298c-61 0-118 24-161 67-43 43-66 100-66 161 1 125 102 227 227 227l1 0c125-1 227-103 227-228-1-125-102-227-228-227z m672-404c-7 0-14 3-19 9-6 6-9 13-8 22 5 67-11 130-46 185-47 75-115 123-202 140-8 2-17 3-25 4-5 1-10 2-15 3-12 1-22 11-23 23-1 14 6 25 18 29 39 13 73 37 101 71 28 36 44 75 48 120 5 63-14 119-55 166-32 36-72 60-119 71-20 4-41 5-60 5-13 0-23 8-26 21-2 7 0 14 5 21 5 6 13 10 22 10 4 0 8 0 12 0 38 0 73-7 105-21 87-38 141-103 162-191 22-93-1-178-68-251-4-5-9-9-13-14-3-3-7-6-10-9l-5-5c-2-1-3-3-2-6 0-2 2-3 4-4 23-8 43-17 60-26 73-41 126-100 160-176 22-51 32-107 29-167-1-16-9-26-22-29-4 0-6-1-8-1z" horiz-adv-x="1158" />

<glyph glyph-name="scale-down" unicode="&#xe81b;" d="M50 197l236 0-259-259c-19-19-19-50 0-69 19-19 50-19 69 0l263 263 0-234c0-27 22-49 49-49 27 0 49 22 49 49l0 349c0 27-22 49-49 49l-358 0c-27 0-49-22-49-49 0-28 22-50 49-50z m542 206l359 0c27 0 49 22 49 49 0 27-22 49-49 49l-236 0 259 259c19 19 19 50 0 69-9 10-22 15-35 15-12 0-25-5-34-15l-263-263 0 234c0 27-22 49-50 49-27 0-49-22-49-49l0-348c0-27 22-49 49-49z" horiz-adv-x="1000" />

<glyph glyph-name="info" unicode="&#xe81c;" d="M500-119c-259 0-469 210-469 469 0 259 210 469 469 469 259 0 469-210 469-469 0-259-210-469-469-469z m0 94c207 0 375 168 375 375 0 207-168 375-375 375-207 0-375-168-375-375 0-207 168-375 375-375z m52 436l0-248 54 0c10 0 18-9 18-19l0-38c0-10-8-18-18-18l-211 0c-11 0-19 8-19 18l0 38c0 10 8 19 19 19l57 0 0 231-57 0c-11 0-19 8-19 19l0 37c0 10 8 19 19 19l138 0c10 0 19-9 19-19l0-37c0-1 0-2 0-2l0 0z m-58 108c-38 0-69 31-69 69 0 38 31 68 69 68 38 0 69-30 69-68 0-38-31-69-69-69z" horiz-adv-x="1000" />

<glyph glyph-name="list-view" unicode="&#xe81d;" d="M444 850l935 0 0 0c35 0 63-28 63-62l0 0c0-35-28-63-63-63l-935 0c-35 0-62 28-62 63l0 0 0 0c0 34 27 62 62 62l0 0z m0-417l935 0 0 0c35 0 63-28 63-62 0-35-28-63-63-63l-935 0c-35 0-62 28-62 63 0 34 27 62 62 62l0 0z m0-416l935 0c35 0 63-28 63-63 0-34-28-62-63-62l-935 0c-35 0-62 28-62 62 0 35 27 63 62 63l0 0z m-381 833l87 0 0 0c34 0 62-28 62-62l0 0c0-35-28-63-62-63l-87 0c-35 0-63 28-63 63l0 0 0 0c0 34 28 62 63 62l0 0z m0-417l87 0 0 0c34 0 62-28 62-62 0-35-28-63-62-63l-87 0c-35 0-63 28-63 63 0 34 28 62 63 62l0 0z m0-416l87 0 0 0c34 0 62-28 62-63 0-34-28-62-62-62l-87 0c-35 0-63 28-63 62 0 35 28 63 63 63l0 0z" horiz-adv-x="1500" />

<glyph glyph-name="sort" unicode="&#xe81e;" d="M257 1l0 788 0 0c0 21 16 38 37 38l0 0 0 0c21 0 38-17 38-38l0-875c0-15-9-28-22-34-14-8-32-6-44 6l0 0-230 230 0 0c-15 15-15 39 0 53 14 15 38 15 53 0l168-168z m386 698l0-788 0 0c0-21-16-38-37-38l0 0 0 0c-21 0-38 17-38 38l0 875c0 15 9 28 22 34 14 8 33 6 45-6l0 0 229-230 0 0c15-15 15-39 0-53-14-15-38-15-53 0l-168 168z" horiz-adv-x="900" />

<glyph glyph-name="forward" unicode="&#xe81f;" d="M121 483c77 78 180 120 290 120l453 0-153 154c-21 21-21 55 0 76 21 21 55 21 76 0l249-249c10-10 16-23 16-38 0-14-6-28-16-38l-242-242c-10-10-24-15-38-15-14 0-28 5-38 15-21 21-21 56 0 77l152 152-459 0c-81 0-157-32-213-88-57-57-89-133-89-213l0-260c0-30-24-54-54-54-30 0-54 24-54 54l0 260c0 109 43 212 120 289z" horiz-adv-x="1053" />

<glyph glyph-name="pin" unicode="&#xe820;" d="M283 850c-9 0-19-4-26-11l-246-245c-17-17-14-45 6-57 35-24 76-35 117-35 2 0 4 0 7 0l190-240c-42-127-19-271 70-380 8-9 19-14 30-14 10 0 19 4 27 11l230 232 250-250c7-7 16-11 26-11 9 0 18 4 25 11 15 14 15 37 0 52l-249 249 230 232c16 16 15 42-3 57-74 59-163 89-253 89-43 0-85-7-126-20l-240 190c2 43-10 86-34 123-7 11-19 17-31 17l0 0z" horiz-adv-x="1000" />

<glyph glyph-name="line-combine" unicode="&#xe821;" d="M127 404l260 238 294-302 149 156 141-147 0-362 0 0c0-12-9-21-20-21l0 0-803 0c-11 0-21 9-21 21l0 417z m44-231l0 217 215 191 295-310 151 160 98-104 0-214-98 98-151-150-295 319-215-207z m-129 635l0-916 916 0 0-42-937 0c-12 0-21 9-21 21l0 937 42 0z m-42 0l0 21c0 12 9 21 21 21 11 0 21-9 21-21l0-21-42 0z m958-916l21 0c12 0 21-10 21-21 0-12-9-21-21-21l-21 0 0 42z" horiz-adv-x="1000" />

<glyph glyph-name="export" unicode="&#xe822;" d="M0-37c0 49 40 89 90 89l773 0c49 0 89-39 89-89 0-49-39-89-89-89l-773 0c-50 0-90 39-90 89z m845-45c25 0 45 20 45 45 0 25-20 45-45 45-24 0-44-20-44-45 0-25 20-45 44-45z m-393 269c-1 1-2 2-3 3l-193 194c-24 23-24 61 0 84 23 23 61 23 84 0l93-93 0 415c0 33 27 60 60 60 33 0 59-27 59-60l0-417 96 95c23 23 61 23 84 0 23-23 23-61 0-84l-196-196c-12-12-27-18-43-17-15 0-29 5-41 16z" horiz-adv-x="952" />

<glyph glyph-name="filter" unicode="&#xe823;" d="M559-116c-21 0-37 17-37 37l0 558c0 9 3 18 9 25l242 272-653 0 243-273c6-6 9-15 9-24l0-336 59-47c16-13 19-37 6-53-13-16-36-18-52-5l-73 59c-9 7-14 17-14 29l0 338-289 324c-9 11-12 27-6 40 6 13 20 22 34 22l820 0c15 0 28-9 34-22 6-13 4-29-6-40l-289-324 0-543c0-20-17-37-37-37l0 0 0 0z m402 573c0 0-1 0-1 0 0 0 0 0 0 0l-249 0c0 0 0 0-1 0 0 0 0 0-1 0-21 0-38-16-38-37 0-21 17-38 38-38 1 0 1 0 1 1 1-1 1-1 1-1l249 0c0 0 0 0 0 1 0-1 1-1 1-1 21 0 38 17 38 38 0 21-17 37-38 37z m0-196c0 0-1 0-1 0 0 0 0 0 0 0l-249 0c0 0 0 0-1 0 0 0 0 0-1 0-21 0-38-17-38-38 0-21 17-37 38-37 1 0 1 0 1 0 1 0 1 0 1 0l249 0c0 0 0 0 0 0 0 0 1 0 1 0 21 0 38 16 38 37 0 21-17 38-38 38z m0-197c0 0-1 0-1 0 0 0 0 0 0 0l-249 0c0 0 0 0-1 0 0 0 0 0-1 0-21 0-38-17-38-38 0-20 17-37 38-37 1 0 1 0 1 0 1 0 1 0 1 0l249 0c0 0 0 0 0 0 0 0 1 0 1 0 21 0 38 17 38 37 0 21-17 38-38 38z" horiz-adv-x="1000" />

<glyph glyph-name="graph" unicode="&#xe824;" d="M658 274c32 18 68 28 107 28 117 0 212-91 218-206l-211 0-114 178z m-19-12l113-177-117-175c-53 40-87 103-87 175 0 73 36 137 91 177z m344-189c-6-115-101-206-218-206-40 0-78 11-111 31l117 175 212 0z m-840 476l233 188 212-262c1-1 1-1 2-2 0 0 0-1 1-1 11-14 32-16 46-4l258 217c7-3 15-4 22-4 36 0 66 29 66 65 0 36-30 65-66 65-36 0-65-29-65-65 0-4 1-7 1-11l-233-196-212 261c0 1-1 2-2 3-6 8-15 12-25 12-7 1-15-2-21-7-1-1-1-1-2-2l-250-202c-9 5-19 7-30 7-36 0-65-29-65-65 0-36 29-65 65-65 36 0 66 29 66 65 0 1 0 2-1 3z m48-382c0 24 20 44 44 44l43 0c24 0 44-19 44-44l0-251c0-24-19-43-44-43l-43 0c-24 0-44 19-44 43l0 251z m174 184c0 24 20 43 44 43l43 0c24 0 44-19 44-43l0-435c0-24-20-43-44-43l-43 0c-24 0-44 19-44 43l0 435z m-348-87c0 24 20 43 44 43l43 0c24 0 44-19 44-43l0-348c0-24-19-43-44-43l-43 0c-24 0-44 19-44 43l0 348z" horiz-adv-x="1000" />

<glyph glyph-name="play-o" unicode="&#xe825;" d="M655 290l-526-361c-71-48-129-18-129 68l0 762c0 86 58 117 129 68l526-361c71-48 71-127 0-176z" horiz-adv-x="750" />

<glyph glyph-name="bar-cluster" unicode="&#xe826;" d="M42-108l937 0c12 0 21-10 21-21 0-12-9-21-21-21l-958 0c-6 0-11 2-15 6-4 4-6 9-6 15l0 958c0 12 9 21 21 21l0 0 0 0c11 0 21-9 21-21l0 0 0-937z m250 479l0-375c0-12-10-21-21-21l-83 0c-12 0-21 9-21 21l0 375c0 11 9 21 21 21l83 0c11 0 21-10 21-21z m166 125l0-500c0-12-9-21-20-21l-84 0c-11 0-21 9-21 21l0 500c0 11 10 21 21 21l84 0c11 0 20-10 20-21z m250 125l0-625c0-12-9-21-20-21l-84 0c-11 0-21 9-21 21l0 625c0 11 10 21 21 21l84 0c11 0 20-10 20-21z m167-333l0-292c0-12-9-21-21-21l-83 0c-12 0-21 9-21 21l0 292c0 11 9 20 21 20l83 0c12 0 21-9 21-20z" horiz-adv-x="1000" />

<glyph glyph-name="bar-horizon" unicode="&#xe827;" d="M26 850l1106 0c14 0 26-12 26-26l0-106c0-14-12-26-26-26l-1106 0c-14 0-26 12-26 26l0 106 0 0c0 14 12 26 26 26l0 0z m0-210l842 0c15 0 27-12 27-27l0-105c0-15-12-26-27-26l-842 0c-14 0-26 11-26 26l0 105c0 15 12 27 26 27l0 0z m0-211l474 0c15 0 26-12 26-26l0-106c0-14-11-26-26-26l-474 0c-14 0-26 12-26 26l0 106c0 14 12 26 26 26l0 0z m0-211l685 0c14 0 26-11 26-26l0-105c0-15-12-26-26-26l-685 0c-14 0-26 11-26 26l0 105c0 15 12 26 26 26l0 0z m0-210l579 0c15 0 27-12 27-26l0-106c0-14-12-26-27-26l-579 0c-14 0-26 12-26 26l0 106c0 14 12 26 26 26l0 0z" horiz-adv-x="1158" />

<glyph glyph-name="grouped-line" unicode="&#xe828;" d="M791 452c-27 19-45 50-45 86 0 57 47 104 104 104 58 0 104-47 104-104 0-58-46-105-104-105-7 0-14 1-21 3l-127-272c27-19 44-50 44-85 0-57-47-104-104-104-58 0-104 47-104 104 0 24 7 45 21 63l-85 141c-9-2-18-4-28-4-20 0-39 6-54 15l-90-107c19-19 31-45 31-74 0-58-46-105-104-105-57 0-104 47-104 105 0 57 47 104 104 104 13 0 26-3 37-7l95 113c-12 17-19 38-19 60 0 58 46 105 104 105 57 0 104-47 104-105 0-33-15-62-39-81l79-132c16 8 33 13 52 13 7 0 15 0 22-2l127 271z m-562-402c35 0 63 28 63 63 0 34-28 62-63 62-34 0-62-28-62-62 0-35 28-63 62-63z m217 271c34 0 62 28 62 62 0 35-28 63-62 63-35 0-63-28-63-63 0-34 28-62 63-62z m196-304c34 0 62 28 62 62 0 35-28 63-62 63-35 0-63-28-63-63 0-34 28-62 63-62z m208 458c35 0 63 28 63 63 0 34-28 62-63 62-34 0-62-28-62-62 0-35 28-63 62-63z m-808 333l0-916 916 0 0-42-937 0c-12 0-21 9-21 21l0 937 42 0z m-42 0l0 21c0 12 9 21 21 21 11 0 21-9 21-21l0-21-42 0z m958-916l21 0c12 0 21-10 21-21 0-12-9-21-21-21l-21 0 0 42z" horiz-adv-x="1000" />

<glyph glyph-name="bar-multiple-metrics" unicode="&#xe829;" d="M0-121l0 861c0 16 13 30 29 30l118 0c16 0 30-14 30-30l0-861c0-16-14-29-30-29l-118 0 0 0c-16 0-29 13-29 29z m235 0l0 942c0 16 14 29 30 29l117 0c17 0 30-13 30-29l0-942c0-16-13-29-30-29l-117 0c-16 0-30 13-30 29z m236 0l0 530c0 16 13 29 29 29l118 0c16 0 29-13 29-29l0-530c0-16-13-29-29-29l-118 0c-16 0-29 13-29 29z m235 0l0 701c0 17 13 30 29 30l118 0c16 0 29-13 29-30l0-701c0-16-13-29-29-29l-118 0c-16 0-29 13-29 29z m235 0l0 584c0 16 13 30 30 30l117 0 0 0c17 0 30-14 30-30l0-584c0-16-13-29-30-29l-117 0c-17 0-30 13-30 29z m236 0l0 351c0 17 13 30 29 30l118 0c16 0 29-13 29-30l0-351c0-16-13-29-29-29l-118 0c-16 0-29 13-29 29z" horiz-adv-x="1353" />

<glyph glyph-name="bar" unicode="&#xe82a;" d="M42-108l937 0c12 0 21-10 21-21 0-12-9-21-21-21l-958 0c-6 0-11 2-15 6-4 4-6 9-6 15l0 958c0 12 9 21 21 21l0 0 0 0c11 0 21-9 21-21l0 0 0-937z m208 479l0-375c0-12-9-21-21-21l-83 0c-12 0-21 9-21 21l0 375c0 11 9 21 21 21l83 0c12 0 21-10 21-21z m333 125l0-500c0-12-9-21-20-21l-84 0c-11 0-21 9-21 21l0 500c0 11 10 21 21 21l84 0c11 0 20-10 20-21z m334-125l0-375c0-12-10-21-21-21l-83 0c-12 0-21 9-21 21l0 375c0 11 9 21 21 21l83 0c11 0 21-10 21-21z m-500 250l0-625c0-12-10-21-21-21l-83 0c-12 0-21 9-21 21l0 625c0 11 9 21 21 21l83 0c11 0 21-10 21-21z m333-333l0-292c0-12-9-21-21-21l-83 0c-12 0-21 9-21 21l0 292c0 11 9 20 21 20l83 0c12 0 21-9 21-20z" horiz-adv-x="1000" />

<glyph glyph-name="burger" unicode="&#xe82b;" d="M89-142c-31 3-56 30-56 63 0 33 25 60 56 62l1406 0c31-2 56-29 56-62 0-33-25-60-56-63l-1406 0z m0 417c-31 2-56 29-56 63 0 33 25 60 56 62l1406 0c31-2 56-29 56-62 0-34-25-61-56-63l-1406 0z m0 417c-31 2-56 29-56 62 0 33 25 60 56 63l1406 0c31-3 56-30 56-63 0-33-25-60-56-62l-1406 0z" horiz-adv-x="1583" />

<glyph glyph-name="wordcloud" unicode="&#xe82c;" d="M160 426c0 21 18 38 40 38l720 0c22 0 40-17 40-38 0-22-18-39-40-39l-720 0c-22 0-40 17-40 39z m400-155c0 22 18 39 40 39l400 0c22 0 40-17 40-39 0-21-18-38-40-38l-400 0c-22 0-40 17-40 38z m0-154c0 21 18 39 40 39l240 0c22 0 40-17 40-39 0-21-18-38-40-38l-240 0c-22 0-40 17-40 38z m-560 154c0 22 18 39 40 39l280 0c22 0 40-17 40-39 0-21-18-38-40-38l-280 0c-22 0-40 17-40 38z m400 541c0 21 18 38 40 38 22 0 40-18 40-38l0-271c0-21-18-38-40-38-22 0-40 18-40 38l0 271z m0-540c0 21 18 38 40 38 22 0 40-17 40-38l0-348c0-21-18-38-40-38-22 0-40 17-40 38l0 348z m160 385c0 21 18 39 40 39 22 0 40-17 40-39l0-116c0-21-18-38-40-38-22 0-40 17-40 38l0 116z" horiz-adv-x="1053" />

<glyph glyph-name="donut" unicode="&#xe82d;" d="M997 297c-26-251-239-447-497-447-114 0-219 38-303 102l154 150c44-26 95-41 149-41 142 0 260 102 285 236l212 0z m-746 487c-150-86-251-248-251-433 0-152 67-287 173-379l156 145c-72 53-118 138-118 234 0 100 51 189 129 241l-89 192z m748-460c1 8 1 17 1 26 0 276-224 500-500 500-80 0-156-19-224-53l90-190c40 21 86 33 134 33 160 0 290-130 290-290 0-9-1-18-2-27l211 1z" horiz-adv-x="1000" />

<glyph glyph-name="packed-bubble" unicode="&#xe82e;" d="M437 41c12-83 85-148 172-148 92 0 168 73 173 164 23-20 54-33 88-33 72 0 130 58 130 130 0 72-58 131-130 131-64 0-117-45-128-105-32 37-80 61-133 61-52 0-99-22-131-59-3 130-109 233-239 233-132 0-239-107-239-239 0-132 107-239 239-239 82 0 155 41 198 104z m-263 374c96 0 174 78 174 174 0 96-78 174-174 174-96 0-174-78-174-174 0-96 78-174 174-174z m478-174c168 0 305 137 305 305 0 168-137 304-305 304-168 0-304-136-304-304 0-168 136-305 304-305z m0 44c144 0 261 117 261 261 0 144-117 261-261 261-144 0-261-117-261-261 0-144 117-261 261-261z m-478 174c72 0 130 58 130 130 0 72-58 131-130 131-72 0-130-59-130-131 0-72 58-130 130-130z m435-522c72 0 130 58 130 130 0 72-58 131-130 131-72 0-131-59-131-131 0-72 59-130 131-130z" horiz-adv-x="1000" />

<glyph glyph-name="pie" unicode="&#xe82f;" d="M233-59c71-42 154-66 242-66 254 0 461 199 474 450l-461 0-255-384z m-42 28c-116 87-191 225-191 381 0 160 79 301 199 387l246-387-254-381z m758 406c-13 251-220 450-474 450-85 0-165-22-234-61l248-389 460 0z" horiz-adv-x="950" />

<glyph glyph-name="polar" unicode="&#xe830;" d="M660-75l0 341 322 0c-17-170-161-313-322-341z m-2 769l0 82c118-4 206-46 285-121l-285-292 0 153 0 178z m678-375l-64 0-576 0 453 463c116-127 182-290 187-463z m-725-224l0-113c-64 3-124 29-172 74l172 177 0-138z m-443-239c-102 115-160 272-168 407l572 0-190-193-214-214z m443 994l0-532-509 0c-8 315 205 529 509 532z" horiz-adv-x="1375" />

<glyph glyph-name="system-log" unicode="&#xe831;" d="M742 850l-704 0c-21 0-38-21-38-48 0-26 17-47 38-47l704 0c21 0 37 21 37 47 0 27-16 48-37 48z m-706-428l244 0c12 0 22 9 27 23 5 17 12 32 19 47 3 4 3 11 1 16-2 6-6 9-10 9l-283 0c-19-1-34-23-34-49 1-26 17-47 36-47l0 1z m3-239c-21 0-39-20-39-46 0-13 4-26 12-35 7-9 17-14 27-14l267 0c8 0 14 5 17 13 3 8 3 17-1 24-10 16-19 32-26 47-3 7-10 11-16 11l-241 0z m608 70c-1-79 63-143 141-144 79 0 143 63 144 142 1 38-14 74-41 102-27 27-63 42-101 42-79 0-143-63-143-142z m68-2c0 39 32 71 71 71 40 0 72-32 72-71 0-40-32-72-72-72-39 0-71 32-71 72z m418 139l-4 0c-22 0-44 10-60 27-16 16-25 39-25 63 0 12 3 23 7 34 12 29 2 63-23 81l-100 58c-7 3-16 5-25 5-17 0-35-7-47-20-19-21-42-36-69-42-26 6-50 21-68 42-13 14-30 22-48 22-9 0-17-2-25-6l-103-58-3-2c-24-18-33-51-21-79 5-12 8-24 8-37 0-24-9-47-25-64-16-17-37-26-60-26l-4 0c-26-2-47-24-48-52-5-27-8-55-9-83 1-28 4-56 9-84 2-27 22-49 48-51l4 0c47 0 85-40 85-90-1-11-3-22-7-32-12-29-2-63 23-80l98-58c8-4 16-5 25-5 17-1 34 7 47 20 18 22 42 37 69 44 27-7 52-23 70-45 13-14 30-22 49-22 9 0 18 2 27 6l99 58 2 2c24 17 33 50 21 78-4 11-6 22-6 34 0 50 38 90 85 90l4 0c26 2 47 24 49 52 5 27 8 55 9 83-1 28-4 56-9 84-2 29-23 51-49 53z m-137-269c-26-43-32-96-16-145l-74-41c-9 9-20 18-31 26-26 23-59 36-93 37-34-1-66-14-93-36-11-8-21-17-31-26l-69 40c16 48 10 101-17 145-26 43-70 71-119 77-1 18-1 37 0 55 1 18 2 36 5 55 49 6 93 34 119 77 26 43 32 96 16 145l75 44c10-9 21-18 31-26 26-21 58-33 91-35 32 2 63 14 89 35 11 7 21 16 31 25l72-42c-17-48-11-101 15-144 26-44 69-72 118-79 3-18 4-37 4-55 0-18-1-37-4-55-49-5-93-34-119-77z" horiz-adv-x="1190" />

<glyph glyph-name="application" unicode="&#xe832;" d="M455 850l433-250 0-500-433-250-433 250 0 500 433 250z m36-530l0 0 0 2 233 134c16 9 21 30 12 45-5 8-12 14-20 16-9 2-18 1-26-3l-232-135-235 135c-8 4-17 5-25 3-13-3-23-14-25-28-2-13 5-26 16-33l235-136 0-259c0-9 3-18 10-24 6-6 15-10 24-9 18 0 33 15 33 33l0 259z" horiz-adv-x="909" />

<glyph glyph-name="chord" unicode="&#xe833;" d="M141 612c81 111 212 183 360 183 68 0 132-15 189-42l21 47c-6 3-11 5-16 7-62 26-127 39-194 39-67 0-132-13-194-39-59-25-112-61-158-106-19-20-36-40-52-62l44-27z m594 117c128-79 212-220 212-380 0-75-18-145-51-207l44-27c7 13 14 27 19 40 26 62 39 127 39 194 0 67-13 132-39 194-25 59-61 112-106 158-30 29-62 54-97 75l-21-47z m135-631c-80-118-216-196-369-196-66 0-129 15-185 41l-21-47c4-2 8-4 12-6 62-26 127-39 194-39 67 0 132 13 194 39 59 25 112 61 158 107 23 23 43 48 61 74l-44 27 0 0z m-600-131c-129 78-215 220-215 382 0 80 21 156 58 221l-44 26c-10-17-19-35-26-53-26-62-39-127-39-194 0-67 13-132 39-194 25-59 61-112 106-158 31-30 64-56 101-78l20 48 0 0z m274 135c-4 7-8 15-12 22-3-20-4-40-4-60 0-61 11-120 34-176 5 1 10 2 15 2-23 54-35 113-35 174 0 13 1 25 2 38l0 0z m33 171c5 0 10-1 15-1 12 23 27 45 42 66-4 3-7 6-11 9-18-23-33-48-46-74l0 0z m60 81c-1 2-3 4-4 6 0-1-1-1-1-2 2-1 4-3 5-4l0 0z m28 41c-8-8-15-16-23-24 3-4 6-8 9-12 69 81 166 137 275 154-2 4-3 9-5 13-37-6-73-16-107-30-56-24-106-58-149-101l0 0z m-130-248c4-7 8-13 12-20 6 46 19 90 39 131-5 0-10 1-16 1-1-4-3-8-5-13-14-32-24-65-30-99l0 0z m88 200c4-3 7-6 11-9 14-10 29-20 43-29-14 14-27 29-40 45-1 1-3 3-5 4-45 36-83 80-112 130-5-2-9-3-14-5 21-36 47-70 77-100 12-13 26-25 40-36l0 0z m-141 184c5-12 11-23 17-35 5 2 9 3 14 5-34 63-53 136-53 213 0 35 4 69 11 102-5 0-9 0-14-1-8-33-11-67-11-101 0-63 12-125 36-183l0 0z m204-210c13-13 28-26 44-38 0 0 1-1 2-1 57-24 119-37 182-37 10 0 20 1 30 1 1 5 2 10 3 15-11-1-22-1-33-1-83 0-161 22-228 61l0 0z m-318-29c17-10 33-21 48-33 6 2 12 3 17 4-18 15-37 29-57 41-2-4-5-8-8-12l0 0z m200-208c-7 15-14 29-21 43-4 7-8 13-12 20-19 31-42 59-68 86-6 6-13 12-20 19-6-2-12-3-17-4 41-35 75-77 102-124 4-7 8-15 12-22 30-61 46-129 46-201 0-2 0-5 0-8 5 1 10 2 15 4 0 1 0 3 0 4 0 63-13 125-37 183l0 0z m-204 227c-15 8-30 15-45 22-7 3-14 5-20 8 5-7 10-14 14-21 15-7 29-14 43-21 2 4 5 8 8 12l0 0z m-74 18c-5 7-10 13-16 20-44 14-91 21-138 21-39 0-77-5-115-14 0-3 0-5 0-7 0-3 0-5 0-8 37 9 76 14 115 14 54 0 106-9 154-26l0 0z m136 151c5 1 10 1 15 2 3 22 5 45 5 67 0 64-13 125-37 183-11 24-23 47-37 70-5-2-10-3-15-4 47-72 74-157 74-249 0-23-1-46-5-69l0 0z m-214-336c27 26 57 49 90 68 2 2 4 4 6 6 10 10 19 20 28 30-2 5-4 10-7 15-61-75-145-130-241-154 3-4 5-9 8-13 22 6 43 13 64 22 18 7 35 16 52 26l0 0z m144 155c-6-8-11-16-17-24 1-2 2-5 3-7 2-2 3-5 4-8 11 14 21 29 30 44 13 20 24 41 33 63 13 32 23 66 29 100-5-1-10-1-15-2-10-55-31-108-59-154-3-4-6-8-8-12l0 0z m182 314c2-32 8-64 16-96 5 2 9 5 14 7-26 92-21 192 13 283-4 1-9 2-14 3-2-6-4-12-6-19-19-57-27-117-23-178l0 0z m168-310c-7 6-14 12-20 18-16 16-30 32-44 50-32 42-55 89-70 139-5-2-9-5-14-7 7-21 16-43 26-63 13-29 30-56 49-80 14-18 28-35 44-51 7-6 13-12 19-17 65-57 145-95 229-110 1 5 3 10 5 14-73 12-142 42-200 87-9 6-16 13-24 20l0 0z m-138 221c-5-2-9-5-14-7-13-6-27-11-41-16-5-2-9-3-14-5-24-7-48-13-73-16-21-3-41-4-62-4-104 0-204 35-284 100-3-5-5-9-7-13 83-66 185-102 291-102 20 0 40 2 59 4 29 4 56 10 83 18 5 2 9 3 14 5 12 4 23 9 34 14 2 0 3 1 4 1 5 2 9 5 14 7 55 27 103 64 144 111 25 29 47 60 64 93-4 3-8 6-12 9-16-33-37-64-63-93-38-44-85-80-137-106l0 0z m-220-305c-2 5-4 9-6 14-13-7-27-14-40-21-33-19-63-42-90-68-9-9-18-19-27-29-19-22-36-45-51-70 3-4 6-7 10-11 14 25 32 49 52 72 42 49 94 87 152 113l0 0z m498-60c-72 62-160 101-254 113-18 2-36 3-55 3-35 0-70-4-104-12-5-1-11-2-17-4-21-6-41-12-61-21 2-4 4-9 6-13 55 23 115 36 176 36 11 0 22-1 33-2 6 0 11-1 16-1 92-10 180-48 250-110 17-15 33-31 47-48 3 4 6 9 8 13-14 16-29 31-45 46l0 0z m-485 66c-2 4-4 9-6 13-3 8-6 15-9 22-1 3-2 6-4 8-1 2-2 5-3 7-8 15-16 30-26 45-4 7-9 14-14 21-21 27-44 52-70 75-51 46-112 79-178 98-1-5-3-9-5-14 64-18 123-50 174-95 20-17 38-36 54-56 6-7 11-13 16-20 18-25 33-52 46-81 2-5 4-10 6-15 2-5 4-9 6-14 14-40 23-82 26-125 4-66-6-130-28-190 4-1 9-3 14-4 2 5 3 11 5 16 19 58 27 118 23 179-3 44-12 88-27 130z" horiz-adv-x="1000" />

<glyph glyph-name="dataset" unicode="&#xe834;" d="M4 598c77-61 225-102 404-102 178 0 328 41 405 102l0-154c-30-66-186-130-405-130-216 0-372 64-404 130l0 154z m404-743c-238 0-404 77-404 146l0 141c75-64 225-105 404-105 180 0 328 43 405 105l0-141c0-69-166-146-405-146z m-86 987c27 2 57 4 86 4 30 0 59-2 87-4 191-16 318-82 318-144 0-68-166-145-405-145-238 0-404 77-404 145 0 62 127 128 318 144z m-318-466c75-64 225-105 404-105 180 0 328 43 405 105l0-164c-30-66-186-129-405-129-216 0-372 63-404 129l0 164 0 0z" horiz-adv-x="818" />

<glyph glyph-name="person" unicode="&#xe835;" d="M742 212c-45 42-98 74-157 95 87 50 146 144 146 252 0 160-131 291-291 291-161 0-291-131-291-291 0-109 60-203 148-253-173-61-297-226-297-420l62 0c0 211 171 382 380 382 99 0 188-38 256-100 31-33 53-60 66-80 11-18 26-50 43-94 10-34 15-70 15-108l63 0c0 56-11 109-29 158-8 26-23 55-43 86-20 32-44 59-71 82z m-302 118c-126 0-229 103-229 229 0 126 103 229 229 229 126 0 228-103 228-229 0-126-102-229-228-229z" horiz-adv-x="929" />

<glyph glyph-name="scatter" unicode="&#xe836;" d="M232 393c-19 34-29 73-29 115 0 135 109 244 245 244 135 0 244-109 244-244 0-135-109-245-244-245 0-81-66-147-147-147-81 0-147 66-147 147 0 56 31 105 78 130z m47 15c-17 29-27 63-27 100 0 108 87 195 196 195 108 0 195-87 195-195 0-108-87-196-195-196-3 0-6 0-9 0-20 57-74 98-138 98-8 0-15-1-22-2z m468-386c68 0 123 55 123 123 0 67-55 122-123 122-67 0-122-55-122-122 0-68 55-123 122-123z m-705-130l937 0c12 0 21-10 21-21 0-12-9-21-21-21l-958 0c-6 0-11 2-15 6-4 4-6 9-6 15l0 958c0 12 9 21 21 21l0 0 0 0c11 0 21-9 21-21l0 0 0-937z m843 479c-51 0-93 42-93 94 0 51 42 93 93 93 52 0 94-42 94-93 0-52-42-94-94-94z" horiz-adv-x="1000" />

<glyph glyph-name="cluster-map" unicode="&#xe837;" d="M914 639c-7 51-31 94-71 128-39 35-85 52-137 52-52 0-98-17-137-52-39-34-63-77-71-128-26-7-65-17-116-32-14-3-29-3-43 0-52 13-128 33-230 60-27 8-52 3-74-15-22-19-33-41-33-67 0-33 0-83 0-148 0-34 0-85 0-153 0-33 0-72 0-114 0-22 0-44 0-67 0-24 0-49 0-75 0-20 6-37 17-52 11-16 27-26 46-31 61-17 152-41 274-74 7-2 15-3 22-3 7 0 14 1 21 3 34 9 85 23 152 41 67 18 117 32 152 42 14 3 28 3 43 0 48-13 121-33 219-58 27-8 52-2 73 16 23 18 34 40 34 67 0 124 0 309 0 556-2 21-8 39-19 54-11 14-27 24-46 29-12 3-37 10-76 21z m-555-722c0-2 0-4-2-5 0-2-2-3-5-3-61 17-153 42-275 75-10 3-18 9-24 16-6 9-9 18-9 28 0 9 0 19 0 29 0 9 0 18 0 27 0 48 0 109 0 183 0 27 0 66 0 119 0 53 0 119 0 199 0 13 6 24 16 33 7 5 14 8 21 8 1 0 2 0 3 0 5 0 9 0 13-1 51-14 130-35 232-63 9-2 17-7 22-15 6-7 8-15 8-25 0-388 0-590 0-605z m347 860c47 0 86-17 119-50 33-33 49-73 49-120 0-26-7-54-21-82-30-44-76-110-137-197-1-4-4-6-8-6-4 0-7 2-9 6-30 44-76 109-137 197-13 25-20 52-20 82 0 3 0 6 0 9 0 43 15 80 45 111 33 33 73 50 119 50l0 0z m305-800c0-16-6-27-18-33-10-9-22-12-37-8-43 13-109 31-198 55 0 0 0 0-1 0-4 1-13 3-26 6-4 0-5 2-5 6 0 7 0 16 0 28 0 20 0 58 0 115 0 5 0 16 0 33 0 6-3 11-7 15-4 5-9 7-15 7-6 0-11-2-14-7-4-4-7-9-7-15 0-8 0-19 0-33 0-19 0-58 0-115 0-4 0-14 0-28 0-4-1-6-5-6-25-7-63-17-114-31-4-1-14-4-29-9 0 0 0 0 0-1-21-6-62-17-124-34-3 0-5 1-7 2 0 1-1 3-1 5 0 10 0 26 0 48 0 13 0 41 0 82 0 79 0 238 0 476 0 10 3 19 10 27 5 7 13 12 22 13 14 4 35 10 63 18 2-34 11-65 27-93 33-47 81-117 146-210 8-11 20-17 35-17 14 0 25 6 35 17 66 94 115 164 148 210 16 30 25 61 27 93 14-4 35-10 63-18 9-2 17-8 23-15 6-7 9-15 9-25 0-124 0-310 0-558l0 0z m-305 553c22 0 41 7 56 23 15 15 23 34 23 56 0 22-8 41-23 56-15 16-34 24-56 24-22 0-40-8-55-24-16-15-24-34-24-56 0-22 8-41 24-56 15-16 33-23 55-23l0 0z m0 115c10 0 18-4 25-11 6-7 10-15 10-25 0-9-4-17-10-24-7-7-15-11-25-11-10 0-18 4-25 11-6 7-10 15-10 24 0 10 4 18 10 25 7 7 15 11 25 11z" horiz-adv-x="1091" />

<glyph glyph-name="geojson-map" unicode="&#xe838;" d="M513 251l-172 171 34 34 138-137 137 137 34-34-171-171z m171 171l-34 34c75 76 75 199 0 274-76 76-199 76-275 0-75-75-75-198 0-274l-34-34c-95 95-95 248 0 343 95 94 248 94 343 0 95-95 95-248 0-343l0 0z m-171 123c-18 0-34 9-42 24-9 15-9 34 0 49 8 15 24 24 42 24 26 0 48-22 48-49 0-26-22-48-48-48z m-153-415c-6 6-9 15-7 23 2 9 9 16 18 18 8 2 17 0 23-7l126-126 385 386-102 0 0 48 121 0c20 0 38-7 52-21 14-14 21-32 21-51l0-437c0-40-32-73-72-73l-825 0c-19 0-37 8-51 21-14 14-21 32-21 52l0 437c0 19 7 37 21 51 14 14 32 21 52 21l121 0 0-48-121 0c-7 0-13-3-18-7-4-5-7-11-7-17l0-344 227 228c5 4 11 7 18 7 6 0 12-3 17-8 9-9 9-25 0-34l-259-259c-1-1-2-1-3-2l0-25c0-14 11-24 24-24l451 0-191 191 0 0z m565-191c13 0 24 10 24 24l0 436c-1-1-2-2-2-3l-393-392 62-62c1-1 2-2 3-3l306 0 0 0z" horiz-adv-x="1000" />

<glyph glyph-name="code" unicode="&#xe839;" d="M832 541l-300 300c-6 6-13 9-21 9l-421 0c-50 0-90-40-90-90l0-781c0-50 40-90 90-90l661 0c50 0 90 40 90 90l0 541c0 8-3 15-9 21z m-291 206l198-197-168 0c-17 0-30 13-30 30l0 167z m240-768c0-17-13-30-30-30l-661 0c-16 0-30 13-30 30l0 781c0 17 14 30 30 30l391 0 0-210c0-50 40-90 90-90l210 0 0-511z m-489 382c-12 11-31 11-43 0l-120-121c-12-11-12-30 0-42l120-120c12-12 31-12 43 0 11 11 11 31 0 42l-99 99 99 99c5 6 8 13 8 21 0 8-3 16-8 22l0 0z m258 0c-12-12-12-31 0-43l98-99-98-99c-8-7-11-18-8-29 3-10 11-18 21-21 10-3 21 0 29 8l120 120c12 12 12 31 0 42l-120 121c-6 5-13 8-21 8-8 0-16-3-21-8l0 0z m-95 69c-8 1-16-1-22-6-7-4-11-11-12-19l-53-362c-2-16 9-31 26-34 16-2 31 9 34 26l52 361c3 16-9 32-25 34z" horiz-adv-x="880" />

<glyph glyph-name="license" unicode="&#xe83a;" d="M68-1l0 778 746 0 0-211 68 0 0 38c0 19-15 34-34 34-19 0-34-15-34-34l0-38c0-46 68-46 68 0l0 245c0 18-15 33-34 33l-814 0c-19 0-34-15-34-33l0-846c0-19 15-34 34-34l475 0c19 0 34 15 34 34 0 19-15 34-34 34l-441 0z m591-64l77 40c10 5 20 5 30 0l78-41 0 100-185 0 0-99 0 0z m-16-80c-21-11-47 4-47 28l0 183c0 17 14 31 32 31 49-28 86-43 111-43 30 0 76 15 136 43 18 0 32-14 32-31l0-184c0-23-25-38-46-27l-110 57-108-57 0 0z m105 156c-136 0-247 110-247 246 0 137 111 247 247 247 136 0 247-110 247-247 0-136-111-246-247-246l0 0z m0 63c102 0 184 82 184 183 0 102-82 184-184 184-101 0-184-82-184-184 0-101 83-183 184-183l0 0z m3 64c-65 0-118 52-118 118 0 65 53 118 118 118 65 0 118-53 118-118 0-66-53-118-118-118z m0 56c34 0 62 28 62 62 0 34-28 62-62 62-34 0-62-28-62-62 0-34 28-62 62-62l0 0z m-303 392l-254 0c-14 0-27-14-27-31 0-17 13-31 27-31l185 0 69 0 30 0c14 0 27 14 27 31 0 17-13 31-27 31l-30 0z m-28-198c0 17-13 31-24 31l-13 0-41 0-152 0c-11 0-23-14-23-31 0-17 12-31 23-31l152 0 41 0 13 0c11 0 24 14 24 31z" horiz-adv-x="1000" />

<glyph glyph-name="link" unicode="&#xe83b;" d="M533 171l-198-199c-28-27-64-42-103-42-39 0-75 15-103 42-27 28-42 64-42 103 0 39 15 75 42 103l198 198c16 16 16 41 0 56-15 16-40 16-56 0l-198-198c-43-42-66-99-66-159 0-60 23-117 66-159 44-44 101-66 159-66 57 0 115 22 159 66l198 198c16 16 16 41 0 57-15 15-41 15-56 0z m396 602c-87 87-230 87-318 0l-198-199c-16-15-16-41 0-56 15-16 41-16 56 0l198 198c57 57 149 57 206 0 27-27 42-64 42-102 0-39-15-76-42-103l-198-198c-16-16-16-41 0-57 7-8 18-12 28-12 10 0 20 4 28 12l198 198c88 88 88 231 0 319z m-457-517l113 113c15 16 15 41 0 57-16 15-41 15-57 0l-113-113c-15-16-15-41 0-57 8-7 18-11 28-11 11 0 21 4 29 11z" horiz-adv-x="1000" />

<glyph glyph-name="account" unicode="&#xe83c;" d="M932 121c-4 24-22 40-42 40-17 0-30 12-30 28 0 2 2 7 3 10 10 21 3 47-17 60l-55 31c-8 3-15 4-22 4-14 0-28-5-37-15-5-5-13-12-19-14-2 6-7 11-13 14-26 15-54 28-84 38 83 50 140 140 140 244 0 158-127 285-285 285-158 0-286-127-286-285 0-104 57-194 141-244-171-55-299-203-326-385-2-18 13-35 32-35 16 0 29 11 31 26 29 200 201 354 407 354 37 0 72-5 105-14l-5-3c-21-15-29-40-20-62 2-2 3-7 3-10 0-15-12-28-28-28-22 0-39-16-44-39 0-3-4-26-4-45 0-19 4-42 4-45 5-24 22-40 43-40 17 0 29-12 29-27 0-3-1-8-3-10-9-22-2-47 17-61l54-30c8-4 15-5 22-5 14 0 28 6 37 16 7 7 20 16 24 17 5-1 17-9 24-17 10-10 24-17 39-17 7 0 13 2 20 4l56 31c21 15 28 40 18 62-1 2-3 7-3 10 0 15 13 27 28 27 23 0 40 16 44 40 1 3 5 26 5 45 2 20-2 43-3 45z m-683 440c0 123 99 222 221 222 123 0 222-99 222-222 0-122-99-221-222-221-122 0-221 100-221 221z m633-518c-41-3-73-37-73-79 0-12 4-25 6-29l-47-26 0 0c-4 4-32 33-62 33-29 0-57-28-61-33l-1 0-46 26c2 4 7 17 7 29 0 42-33 75-74 79-1 7-4 22-4 34 0 10 2 26 4 34 41 2 74 37 74 78 0 12-5 25-7 29l41 23c10-5 20-10 29-15 2-1 5-3 8-3 10-6 20-9 31-9 29 0 56 26 61 30l0 0 46-25c-2-5-6-17-6-29 0-42 33-76 74-79 1-8 3-22 3-34 0-12-2-27-3-34l0 0z m-176 119c-47 0-86-38-86-85 0-48 39-86 86-86 47 0 86 38 86 86 0 47-39 85-86 85l0 0z m0-120c-19 0-35 15-35 35 0 19 16 34 35 34 19 0 35-15 35-34 0-20-16-35-35-35z" horiz-adv-x="960" />

<glyph glyph-name="scale-up" unicode="&#xe83d;" d="M393-11l-222 0 244 244c18 19 18 48 0 66-18 18-47 18-65 0l-248-248 0 220c0 26-21 46-46 46-26 0-46-20-46-46l0-328c0-25 20-46 46-46l337 0c26 0 47 21 47 46 0 26-21 46-47 46z m511 850l-337 0c-26 0-46-21-46-46 0-26 20-47 46-47l222 0-244-243c-18-19-18-48 0-66 9-9 21-13 33-13 11 0 23 4 32 13l248 248 0-220c0-26 21-46 46-46 26 0 47 20 47 46l0 328c0 25-21 46-47 46z" horiz-adv-x="952" />

<glyph glyph-name="exit" unicode="&#xe83e;" d="M1140 382c11-11 11-29 0-40l-230-230c-5-5-13-8-20-8-7 0-15 3-20 8-12 11-12 30 0 41l180 180-447 0c-16 0-29 13-29 29 0 16 13 29 29 29l447 0-180 180c-12 12-12 30 0 41 11 11 29 11 40 0l230-230 0 0z m-652-508c-269 0-488 219-488 488 0 269 219 488 488 488 84 0 168-22 241-64 14-8 19-25 11-39-8-14-26-19-39-11-65 37-139 57-213 57-237 0-431-193-431-431 0-237 194-431 431-431 74 0 148 20 213 57 13 8 31 3 39-11 8-14 3-31-11-39-74-42-157-64-241-64z" horiz-adv-x="1182" />

<glyph glyph-name="notification" unicode="&#xe83f;" d="M637 811c-12 8-25 12-39 12-16 0-32-6-45-17l-267-221-148 0c-76 0-138-62-138-137l0-213c0-76 62-137 138-137l179 0 236-196c12-11 28-17 45-17 14 0 27 4 38 11 23 15 36 39 36 66l0 784c0 27-13 51-35 65z m-22-849c0-7-3-14-9-18-2-1-5-2-8-2-3 0-6 1-9 3l-252 209-199 0c-45 0-81 36-81 81l0 213c0 44 36 80 81 80l169 0 282 234c3 3 6 4 9 4 3 0 6-1 8-2 6-4 9-11 9-18l0-784z m292 688c-12 10-30 8-40-4-10-13-8-30 5-40 79-64 124-156 124-252 0-100-48-194-131-257-13-10-15-28-6-40 6-7 14-11 23-11 6 0 12 2 17 6 98 74 154 184 154 302 0 114-53 222-146 296z" horiz-adv-x="1083" />

<glyph glyph-name="copy" unicode="&#xe840;" d="M688 689l-563 0c-69 0-125-56-125-126l0-568c0-70 56-126 125-126l563 0c69 0 125 56 125 126l0 568c0 70-56 126-125 126z m67-697c0-35-29-64-64-64l-569 0c-35 0-63 29-63 64l0 574c0 36 28 64 63 64l569 0c35 0 64-28 64-64l0-574z m-445 849l544 0c61 0 110-49 110-111l0-499c0-62-45-112-106-112-8 0-31 3-31 28 0 24 20 28 31 28 31 0 51 25 51 56l0 499c0 31-24 56-55 56l-544 0c-30 0-55-22-55-52 0-9-4-28-25-28-20 0-27 14-27 28-1 61 43 107 107 107z m-86-404l378 0 0 0c16 0 28-13 28-28 0-16-12-29-28-29l-378 0c-16 0-28 13-28 29 0 15 12 28 28 28z m0-130l378 0 0 0c16 0 28-13 28-29 0-15-12-28-28-28l-378 0c-16 0-28 13-28 28 0 16 12 29 28 29z m0-131l248 0c15 0 28-13 28-28 0-16-13-28-28-28l-248 0c-16 0-28 12-28 28 0 15 12 28 28 28z" horiz-adv-x="1000" />

<glyph glyph-name="fusion" unicode="&#xe841;" d="M827 190c-16 0-31-6-42-15l-136 78 0 192 136 78c11-9 26-14 42-14 38 0 69 31 69 69 0 38-31 69-69 69-38 0-69-31-69-69 0-9 2-18 6-27l-133-75-165 96 0 131c29 7 51 35 51 67 0 38-31 69-69 69-38 0-69-31-69-69 0-32 22-58 51-67l0-131-165-96-131 76c4 10 5 19 5 28 0 38-30 69-68 69-39 0-69-31-69-69 0-38 30-69 69-69 16 0 29 5 41 14l136-78 0-192-136-78c-11 9-25 14-41 14-39 0-69-30-69-68 0-39 30-69 69-69 38 0 68 30 68 69 0 9-1 18-5 25l131 76 165-96 0-134c-29-8-51-35-51-67 0-39 31-69 69-69 38 0 69 30 69 69 0 32-22 59-51 67l0 134 165 96 131-76c-4-7-6-16-6-25 0-39 31-69 69-69 38 0 69 30 69 69 0 38-29 67-67 67z m-214 65c0 0 0 0 0 0-2-2-2-2-2-2l-145-85 0 170 147 86 0-169z m214 357c18 0 33-14 33-32 0-18-15-33-33-33-18 0-33 15-33 33 0 18 15 32 33 32z m-412 158c0 18 15 33 33 33 18 0 33-15 33-33 0-18-15-34-33-34-18 0-33 14-33 34z m33-230c0 0 0 0 0 0 0 0 0 0 0 0l149-85-149-84-147 85 147 84z m-414 40c0 18 15 32 33 32 18 0 33-14 33-32 0-18-15-33-33-33-18 0-33 15-33 33z m396-242l0-170-147 85 0 171 147-86z m-361-252c-18 0-33 15-33 33 0 18 15 33 33 33 9 0 18-4 23-10 0 0 0 0 0 0 2-1 2-3 4-3 4-6 5-13 5-20 0-16-14-33-32-33z m412-159c0-19-15-33-33-33-18 0-33 14-33 33 0 18 15 32 33 32 18 0 33-14 33-32z m346 159c-18 0-33 15-33 33 0 18 15 33 33 33 18 0 33-15 33-33 0-18-15-33-33-33z" horiz-adv-x="897" />

<glyph glyph-name="upload" unicode="&#xe842;" d="M1054-137l-964 0c-49 0-89 40-89 89l0 808c0 49 40 89 89 89l418 0c50 0 90-40 90-89 0-14-12-25-26-25-14 0-25 11-25 25 0 21-17 38-39 38l-418 0c-21 0-38-17-38-38l0-808c0-21 17-38 38-38l964 0c14 0 26-12 26-26 0-14-11-25-26-25z m0 0c-14 0-25 11-25 25 0 14 11 26 25 26 21 0 38 17 38 38l0 524c0 21-17 38-38 38l-753 0c-21 0-38-17-38-38l0-342c0-14-11-26-25-26-14 0-26 12-26 26l0 342c0 49 40 89 89 89l753 0c49 0 89-40 89-89l0-524c0-49-40-89-89-89l0 0z m-191 782l-227 0c-49 0-89 40-89 89l0 13c0 14 12 26 26 26 14 0 25-12 25-26l0-13c0-21 17-38 38-38l227 0c14 0 26-11 26-25 0-14-12-26-26-26z m-689-782l-20 0c-14 0-25 11-25 25 0 14 11 26 25 26l20 0c21 0 38 17 38 38l0 215c0 14 12 25 26 25 14 0 25-11 25-25l0-215c0-49-40-89-89-89z m796 650c-14 0-25 12-25 26l0 68c0 21-18 38-39 38l-115 0c-14 0-25 11-25 25 0 14 11 26 25 26l115 0c49 0 89-40 89-89l0-68c0-14-11-26-25-26z m-280-466c-14 0-25 12-25 26l0 270c0 14 11 25 25 25 14 0 26-11 26-25l0-270c0-14-12-26-26-26l0 0z m109 162c-6 0-13 2-18 7l-109 109c-10 10-10 26 0 36 10 10 26 10 36 0l109-109c10-10 10-26 0-36-5-5-11-7-18-7z m-218 0c-7 0-13 2-18 7-10 10-10 26 0 36l109 109c10 10 26 10 36 0 10-10 10-26 0-36l-109-109c-5-5-11-7-18-7l0 0z" horiz-adv-x="1159" />

<glyph glyph-name="area-stack" unicode="&#xe843;" d="M42 808l0-916 916 0 0-42-937 0c-12 0-21 9-21 21l0 937 42 0z m-42 0l0 21c0 12 9 21 21 21 11 0 21-9 21-21l0-21-42 0z m958-916l21 0c12 0 21-10 21-21 0-12-9-21-21-21l-21 0 0 42z m16 658l0-254-280 131-300-124-290-64 0 210c0 10 8 18 18 20l272 45 300 265 280-229z m1-329l-1-248 0 0c0-12-9-21-21-21l-828 4 0 0c-12 1-21 10-21 21l0 0 1 194 290 66 300 126 280-142z" horiz-adv-x="1000" />

<glyph glyph-name="area" unicode="&#xe844;" d="M102 242c-1 6 0 12 4 16l150 185c0 0 0 1 0 1 1 1 1 1 1 2l172 352c3 7 9 11 16 11 7 2 15 0 20-6l0 0 167-193c0 0 1-1 1-1 1 0 1-1 2-2l104-81 23 9c1 1 1 1 1 1l141 96c3 2 7 3 11 3 2 1 3 1 4 1 11 0 20-9 20-20l0-621c0-6-2-11-7-15-3-4-9-7-15-7l-794 0c-7 0-12 3-16 7-4 4-7 9-7 15l0 239c0 3 1 6 2 8z m38-6c0-1 0-2 0-2l0-110 139 84c2 1 3 1 5 2 1 0 2 1 3 1l147 60 161 192c2 2 4 4 7 5 1 2 3 3 6 4l89 37-86 67c-2 1-3 3-5 4-1 1-2 3-4 4l0 0-149 172-160-327c0-2-1-4-3-5 0-2-1-4-3-6l-147-182z m0-159l0-64 759 0 0 404-139 45c-2 1-4 2-6 3-2 1-3 2-5 3l-17 13-106-44 0 0-162-193c-2-2-3-3-5-5-2-1-4-3-7-4l-150-61c-1 0-1 0-2 0l0-1-160-96z m759 505l0-123-123 40 3 1c1 1 2 1 4 2 0 1 1 1 2 2l114 78z m-859 208l0-880 880 0 0-40-900 0c-11 0-20 9-20 20l0 900 40 0z m-40 0l0 20c0 11 9 20 20 20 11 0 20-9 20-20l0-20-40 0z m920-880l20 0c11 0 20-9 20-20 0-11-9-20-20-20l-20 0 0 40z" horiz-adv-x="960" />

<glyph glyph-name="expand" unicode="&#xe845;" d="M286 234c11-11 11-27 1-37-11-10-27-10-37 0l-136 135c-10 11-10 27 0 37l130 131c10 10 27 10 37 0 11-11 11-27 0-37l-87-88 168-1c14 0 26-12 26-26 0-15-12-26-26-26l-165 1 89-89z m201 515c10 11 27 11 37 1l130-131c10-10 10-27 0-37-10-10-27-10-37 0l-88 88-1-167c0-8-3-14-7-19-5-5-12-8-19-8-14 0-26 12-26 26l1 164-89-89c-10-10-27-10-37 0-10 10-10 27 0 37l136 135z m229-271c-10 11-10 27 0 37 10 10 27 10 37 0l136-136c10-10 10-26 0-36l-131-131c-10-10-26-10-37 0-10 11-10 27 0 37l88 88-168 1c-14 0-26 12-26 26 0 15 11 26 26 26l164-1-89 89z m-200-516c-10-10-27-10-37 0l-130 131c-11 10-11 26 0 37 10 10 27 10 37 0l87-88 1 167c0 7 3 14 8 19 5 4 11 7 18 8 15 0 27-12 26-26l-1-164 90 89c10 10 26 10 37 0 10-10 10-27-1-37l-135-136z m-425 888l818 0c50 0 91-41 91-91l0-818c0-50-41-91-91-91l-818 0c-50 0-91 41-91 91l0 818c0 50 41 91 91 91z m14-54c-26 0-46-21-46-46l0-796c0-25 20-45 46-45l795 0c25 0 46 20 46 45l0 796c0 25-21 46-46 46l-795 0z" horiz-adv-x="1000" />

<glyph glyph-name="area-percentage" unicode="&#xe846;" d="M42 808l0-916 916 0 0-42-937 0c-12 0-21 9-21 21l0 937 42 0z m-42 0l0 21c0 12 9 21 21 21 11 0 21-9 21-21l0-21-42 0z m958-916l21 0c12 0 21-10 21-21 0-12-9-21-21-21l-21 0 0 42z m16 658l0-254-280 131-300-124-290-64 0 210c0 10 8 18 18 20l272 45 300 265 280-229z m1-329l-1-248 0 0c0-12-9-21-21-21l-828 4 0 0c-12 1-21 10-21 21l0 0 1 194 290 66 300 126 280-142z" horiz-adv-x="1000" />

<glyph glyph-name="pivot" unicode="&#xe847;" d="M175 720l82 0c24 0 44-20 44-44l0-82c0-24-20-44-44-44l-82 0c-24 0-44 20-44 44l0 82c0 24 20 44 44 44z m216 0l435 0c24 0 43-20 43-44l0-84c0-24-19-43-43-43l-435 0c-24 0-44 19-44 43l0 84c0 24 20 44 44 44z m-216-218l84 0c24 0 44-19 44-43l0-435c0-24-20-44-44-44l-84 0c-24 0-43 20-43 44l0 435c0 24 19 43 43 43z m248-354l167-1c100 0 105 84 104 119 1 96 1 147 1 155l-80-80c-9-10-24-10-33 0-9 9-9 23 0 33l122 121c9 9 24 10 33 0l117-117c9-9 9-24 0-33-9-9-24-9-33 0l-79 79 0-158c3-165-109-165-143-165l-173 0 80-80c9-9 10-24 0-33-9-9-24-9-33 0l-121 122c-10 9-10 24 0 33l117 117c9 9 23 9 33 0 9-9 9-24 0-33l-79-79z m-319 685l783 0c48 0 87-39 87-87l0-783c0-48-39-87-87-87l-783 0c-48 0-87 39-87 87l0 783c0 48 39 87 87 87z m13-53c-24 0-43-19-43-43l0-761c0-24 19-43 43-43l761 0c24 0 44 19 44 43l0 761c0 24-20 43-44 43l-761 0z" horiz-adv-x="1000" />

<glyph glyph-name="line" unicode="&#xe848;" d="M125 262c-9 8-9 22-1 31 8 9 22 10 31 1 1 0 2-1 3-2l128-127 469 462c8 8 21 8 29 1l176-169 0 0c8-9 9-23 1-32-9-9-23-10-32-2-1 1-1 1-2 2l-157 152-469-462c-9-8-22-8-30 0l-146 145 0-115 0 115z m-83 546l0-916 916 0 0-42-937 0c-12 0-21 9-21 21l0 937 42 0z m-42 0l0 21c0 12 9 21 21 21 11 0 21-9 21-21l0-21-42 0z m958-916l21 0c12 0 21-10 21-21 0-12-9-21-21-21l-21 0 0 42z" horiz-adv-x="1000" />

<glyph glyph-name="line-bar" unicode="&#xe849;" d="M165 128c23 1 45 11 62 28l81 81 0-254c0-9-7-16-16-16l-111 0c-9 0-16 8-16 16l0 145z m199 111l77-76c18-18 41-28 67-29l0-151c0-9-7-16-16-16l-112 0c-9 0-16 8-16 16l0 256z m200-89c5 4 10 8 15 13l128 128 0-308c0-9-7-16-16-16l-111 0c-9 0-16 8-16 16l0 167z m332 330l2-3c2-2 5-4 9-8l0-486c0-9-8-16-16-16l-112 0c-9 0-16 8-16 16l0 364 133 133z m91 235c6-6 8-14 8-24l-3-51c-1-34-3-68-4-101-1-8-2-18-10-26-2-2-5-4-8-6-4-2-8-3-13-3-10 0-16 6-21 11l-40 40-354-354c-9-9-20-14-32-14-12 0-24 5-32 14l-141 141-148-148c-8-8-19-13-31-13-12 0-24 5-32 13l-9 9c-17 17-17 45 0 63l188 188c9 8 20 13 32 13 12 0 23-5 32-13l141-141 314 314c-9 9-18 18-27 27l-13 13c-5 5-16 16-9 33 2 3 4 6 6 8 8 8 17 8 24 9 52 2 104 4 156 7 1 0 2 0 3 0 10 0 18-3 23-9z m-945 93l0-916 916 0 0-42-937 0c-12 0-21 9-21 21l0 937 42 0z m-42 0l0 21c0 12 9 21 21 21 11 0 21-9 21-21l0-21-42 0z m958-916l21 0c12 0 21-10 21-21 0-12-9-21-21-21l-21 0 0 42z" horiz-adv-x="1000" />

<glyph glyph-name="area-stream" unicode="&#xe84a;" d="M125 495l185 0c133 0 148 61 199 139 50 78 79 145 193 145 76 0 167-68 273-203l0-599c0-11-10-20-21-21l-829-4c-11 0-21 9-21 21l0 0 0 502c0 11 10 20 21 20l0 0z m809 67c0 0-120 179-236 180-111 2-139-127-211-208-54-61-74-81-179-81l-151 0c-9 0-16-8-16-17l0-212c0-12 9-21 20-21l147 0c83 0 169 56 229 120 59 63 112 150 177 150 120 0 220-182 220-182l0 271z m-892 246l0-916 916 0 0-42-937 0c-12 0-21 9-21 21l0 937 42 0z m-42 0l0 21c0 12 9 21 21 21 11 0 21-9 21-21l0-21-42 0z m958-916l21 0c12 0 21-10 21-21 0-12-9-21-21-21l-21 0 0 42z" horiz-adv-x="1000" />

<glyph glyph-name="heatmap" unicode="&#xe84b;" d="M0 656l266 0 0-188-266 0 0 188z m0-389l266 0 0-187-266 0 0 187z m279 0l266 0 0-187-266 0 0 187z m0-194l266 0 0-187-266 0 0 187z m272 777l267 0 0-187-267 0 0 187z m0-194l267 0 0-188-267 0 0 188z m0-194l267 0 0-188-267 0 0 188z m0-195l267 0 0-187-267 0 0 187z m273 389l266 0 0-188-266 0 0 188z m0-583l266 0 0-187-266 0 0 187z m279 583l266 0 0-188-266 0 0 188z m0-194l266 0 0-188-266 0 0 188z m0-195l266 0 0-187-266 0 0 187z m-279 583l266 0 0-187-266 0 0 187z m-824-777l266 0 0-187-266 0 0 187z m0 777l266 0 0-187-266 0 0 187z m279-194l266 0 0-188-266 0 0 188z m0-194l266 0 0-188-266 0 0 188z m545 0l266 0 0-188-266 0 0 188z" horiz-adv-x="1375" />

<glyph glyph-name="bar-in-polar" unicode="&#xe84c;" d="M26 510l79-27c-14-42-22-86-22-133 0-230 187-417 417-417 230 0 417 187 417 417 0 230-187 417-417 417l0 83c276 0 500-224 500-500 0-276-224-500-500-500-276 0-500 224-500 500 0 56 9 110 26 160l0 0z m165-284l77 31c37-92 127-157 232-157 138 0 250 112 250 250 0 138-112 250-250 250l0 83c184 0 333-149 333-333 0-184-149-333-333-333-140 0-260 86-309 209z m142 124l84 0c0-46 37-83 83-83 46 0 83 37 83 83 0 46-37 83-83 83l0 84c92 0 167-75 167-167 0-92-75-167-167-167-92 0-167 75-167 167z m167 500l1 0c11 0 20-9 20-21l0-41c0-12-9-21-20-21l-1 0c-11 0-21 9-21 21l0 41c0 12 10 21 21 21z m0-167l1 0c11 0 20-9 20-20l0-42c0-12-9-21-20-21l-1 0c-11 0-21 9-21 21l0 42c0 11 10 20 21 20z m0-166l1 0c11 0 20-10 20-21l0-42c0-11-9-21-20-21l-1 0c-11 0-21 10-21 21l0 42c0 11 10 21 21 21z m-83-167l0-1c0-11-10-20-21-20l-42 0c-11 0-21 9-21 20l0 1c0 12 10 21 21 21l42 0c11 0 21-9 21-21z m-149-94l0-1c5-10 0-22-11-27l-39-15c-10-5-23 1-27 11l0 1c-4 10 1 23 11 27l39 15c11 5 23 0 27-11l0 0z m-162 231l0-1c-3-11-14-18-25-15l-41 11c-11 3-17 15-14 26l0 0c3 11 14 18 25 15l40-11c12-3 18-14 15-25l0 0z" horiz-adv-x="1000" />

<glyph glyph-name="radar" unicode="&#xe84d;" d="M509 850l-509-370 195-600 628 0 195 600-509 370z m28-85l390-282-90-32-300 258 0 56z m0-127l243-206-243-79 0 285z m269-252l-153-223-102 141 255 82z m-198-248l-263-94 167 227 96-133z m-142 161l-163-223-77 291 240-68 0 0z m-223 119l240 203 0-271-240 68z m240 347l0-76-302-254-113 31 415 299z m-260-797l-144 438 88-25 93-362-37-51 0 0z m40-34l25 34 351 124 116-158-492 0z m534 34l-110 150 198 294-3 3 65 22-150-469z" horiz-adv-x="1043" />

<glyph glyph-name="user" unicode="&#xe84e;" d="M603 94l0 0c0 24 21 33 48 33l261 0c27 0 49-9 49-33 0-24-22-35-49-35l-261 0c-27 0-48 11-48 35z m-225 283c-75 40-126 120-126 211 0 132 108 240 240 240 133 0 240-108 240-240 0-88-47-165-117-206 77-17 147-52 206-100l0 0c7-6 11-15 11-25 0-19-15-34-34-34-7 0-15 2-24 10-7 6-14 11-22 17l0 0c-70 48-154 76-245 76-222 0-404-167-429-382-2-23-3-40-3-50 0-18-15-34-34-34-19 0-34 16-34 34l0 0c0 232 157 426 371 483l0 0z m534-438c27 0 49-9 49-34 0-25-22-34-49-34l-261 0c-27 0-48 9-48 34 0 25 21 34 48 34l261 0z m-422 470c98 0 177 79 177 177 0 98-79 177-177 177-97 0-177-79-177-177 0-98 80-177 177-177z" horiz-adv-x="960" />

<glyph glyph-name="camera" unicode="&#xe84f;" d="M872 29l0 104c0 15 12 28 27 28 14 0 26-13 26-28l0-104 95 0c15 0 26-12 26-26 0-15-11-26-26-26l-95 0 0-96c0-14-12-26-26-26-15 0-27 12-27 26l0 96-104 0c-14 0-26 11-26 26 0 14 12 26 26 26l104 0z m-345 65c-120 0-218 97-218 217 0 120 98 218 218 218 120 0 217-98 217-218 0-120-97-217-217-217z m0 48c93 0 169 76 169 169 0 94-76 169-169 169-94 0-169-75-169-169 0-93 75-169 169-169z m7 300c68-4 122-60 123-129 0-1 0-1 0-2 0-14-12-26-26-26-14 0-26 12-26 26 0 0 0 0 0 1 0 41-32 74-71 78-1 0-2 0-3 0-14 0-26 11-26 26 0 13 9 23 22 26 1 0 2 0 3 0 0 0 1 0 1 0 1 0 2 0 3 0z m-382-538c-72 0-130 58-130 130l0 526c0 72 58 131 130 131l153 0 15 61c15 58 67 98 127 98l146 0c60 0 112-40 127-97l16-62 147 0c72 0 130-59 130-131l1-347c-1-15-12-26-27-26-14 0-26 11-26 26 0 1 0 106 1 316 0 60-41 108-101 108l-171 0-16 70c-11 50-55 85-106 85l-98 0c-51 0-95-36-106-85l-15-70-167 0c-60 0-108-48-108-108l0-464c0-60 48-109 108-109l492 0c14 0 26-12 26-26 0-14-12-26-26-26l-522 0z m53 593c-15 0-26 12-26 26 0 15 11 26 26 26 14 0 26-11 26-26 0-14-12-26-26-26z" horiz-adv-x="1087" />

<glyph glyph-name="split" unicode="&#xe850;" d="M458 476l0 121c-56 7-100 55-100 113 0 64 52 115 115 115 63 0 115-51 115-115 0-53-38-99-88-111l0-111c0-65 52-117 117-117l92 0c7 56 56 100 114 100 63 0 115-51 115-115 0-63-52-114-115-114-54 0-99 37-111 87l-108 0c-40 0-77 17-104 44l0-81c0-4 0-7 0-10l0-169c0-65 52-117 117-117l92 0c7 56 56 100 114 100 63 0 115-51 115-115 0-63-52-114-115-114-54 0-99 37-111 87l-108 0c-80 0-146 66-146 146l0 89c-26-26-63-43-103-43l-103 0c-11-52-57-92-112-92-64 0-115 52-115 115 0 63 51 114 115 114 57 0 104-41 113-95l89 0c62 0 112 47 116 107l0 181z m365-564c38 0 69 31 69 69 0 38-31 69-69 69-38 0-69-31-69-69 0-38 31-69 69-69z m0 376c38 0 69 30 69 68 0 38-31 69-69 69-38 0-69-31-69-69 0-38 31-68 69-68z m-683-188c38 0 68 31 68 69 0 38-30 69-68 69-38 0-69-31-69-69 0-38 31-69 69-69z m333 542c38 0 69 30 69 68 0 38-31 69-69 69-38 0-69-31-69-69 0-38 31-68 69-68z" horiz-adv-x="958" />

<glyph glyph-name="kpi" unicode="&#xe851;" d="M91 850l773 0c50 0 91-41 91-91l0-818c0-50-41-91-91-91l-773 0c-50 0-91 41-91 91l0 818c0 50 41 91 91 91z m0-45c-25 0-45-21-45-46l0-818c0-25 20-46 45-46l773 0c25 0 45 21 45 46l0 818c0 25-20 46-45 46l-773 0z m291-174c-6-2-12-4-18-4-7 0-13 2-18 4l-143-164c1-4 2-8 2-12 0-26-21-46-46-46-25 0-45 20-45 46 0 25 20 45 45 45 4 0 8 0 11-1l148 170c0 1 0 2 0 4 0 25 21 45 46 45 25 0 45-20 45-45 0-2 0-4 0-5 1-1 1-1 2-2l174-168c5 1 10 2 15 2 5 0 10-1 15-2l141 162c-1 4-1 8-1 13 0 25 20 45 45 45 25 0 46-20 46-45 0-25-21-46-46-46-4 0-7 1-11 2l-140-161c-1-2-3-3-4-4 0-3 1-6 1-9 0-26-21-46-46-46-25 0-45 20-45 46 0 3 0 6 0 8l-173 168 0 0z m-246-554l281 0c12 0 22-10 22-22 0-13-10-23-22-23l-281 0c-12 0-22 10-22 23 0 12 10 22 22 22z m0 109l281 0c12 0 22-10 22-22 0-13-10-23-22-23l-281 0c-12 0-22 10-22 23 0 12 10 22 22 22z m0 110l281 0c12 0 22-11 22-23 0-13-10-23-22-23l-281 0c-12 0-22 10-22 23 0 12 10 23 22 23z m429-245l225 258c8 10 23 11 32 3 9-9 10-23 2-32l-225-259c-8-10-22-11-32-2-9 8-10 22-2 32z m31 172c-21 0-37 16-37 36 0 20 16 37 37 37 20 0 36-17 36-37 0-20-16-36-36-36z m190-191c-20 0-36 16-36 36 0 20 16 37 36 37 20 0 37-17 37-37 0-20-17-36-37-36z" horiz-adv-x="955" />

<glyph glyph-name="table" unicode="&#xe852;" d="M10 475c0 35 28 63 63 63l305 0c34 0 62-28 62-63l0-305c0-34-28-62-62-62l-305 0c-35 0-63 28-63 62l0 305z m274-275l0 0 74 0-97 142 86 127-71 0-51-74-50 74-71 0 85-127-96-142 73 0 59 88 59-88z m415 650c3 0 7-1 9-4l226-217 0-641c0-60-38-108-97-108l-600 0c-41 0-75 34-75 75l0 96c0 7 6 13 13 13l13 0c6 0 12-6 12-13l0-83c0-27 22-50 50-50l587 0c38 0 59 31 59 70l0 607-196 0c-12 0-21 9-21 21l0 196-409 0c-39 0-70-31-70-69l0-145c0-7-5-13-12-13l-13 0c-7 0-13 6-13 13l0 145c0 59 48 107 108 107l429 0z m18-217l160 0-160 160 0-160 0 0z m-113-191l208 0c12 0 21-10 21-21 0-12-9-21-21-21l-208 0c-11 0-21 9-21 21 0 11 10 21 21 21z m0-113l208 0c12 0 21-9 21-21 0-11-9-20-21-20l-208 0c-11 0-21 9-21 20 0 12 10 21 21 21z m0-104l208 0c12 0 21-9 21-21 0-11-9-21-21-21l-208 0c-11 0-21 10-21 21 0 12 10 21 21 21z" horiz-adv-x="958" />

<glyph glyph-name="date-range" unicode="&#xe853;" d="M65 611l718 0 0-65-718 0 0-479 327 0 0 0c17-1 30-15 30-32 0-17-14-31-30-33l0 0-348 0c-24 0-44 20-44 44l0 717c0 24 20 44 44 44l130 0 0-66-109 0 0-130z m662-735c-146 0-264 118-264 264 0 146 118 264 264 264 146 0 264-118 264-264 0-146-118-264-264-264z m2 61c113 0 204 92 204 205 0 113-91 204-204 204-113 0-204-91-204-204 0-113 91-205 204-205z m54 524l0 0 0 280-131 0 0 66 152 0c24 0 44-20 44-44l0-301 0 0c0 0 0-1 0-1 0-18-15-33-33-33-18 0-32 15-32 33 0 0 0 0 0 0l0 0z m-261 346l0-66-218 0 0 66 218 0z m-228-340l379 0c17 0 30-13 30-29-18 1-40-3-67-11-27-8-46-17-57-25l-285 0c-18 0-33 15-33 33 0 18 15 32 33 32z m0-143l192 0c-6-7-14-18-22-33-9-14-14-25-16-32l-154 0c-18 0-33 14-33 32 0 18 15 33 33 33z m-105 78c-18 0-32 15-32 33 0 18 14 32 32 32 18 0 33-14 33-32 0-18-15-33-33-33z m0-143c-18 0-32 14-32 32 0 18 14 33 32 33 18 0 33-15 33-33 0-18-15-32-33-32z m424 558l0-99c0-18-15-33-33-33-18 0-32 15-32 33l0 99c0 18 14 33 32 33 18 0 33-15 33-33z m-335 0l0-99c0-18-14-33-32-33-18 0-33 15-33 33l0 99c0 18 15 33 33 33 18 0 32-15 32-33z m587-728l0 0-113 0-30 0 0 0c-19 0-35 16-35 35l0 0 0 143 0 0c0 1 0 2 0 3 0 18 15 32 33 32 18 0 32-14 32-32 0-1 0-2 0-3l0 0 0-113 113 0 0 0c17-1 31-15 31-32 0-17-14-32-31-33z" horiz-adv-x="1000" />

<glyph glyph-name="table-edit-exit" unicode="&#xe854;" d="M1001 4c-10-24-24-45-41-63-18-18-39-33-63-45-24-12-49-19-77-21-2-1-3-1-5-1-1 0-3 0-4 0l-91 0c-6 0-12 1-17 3-6 2-11 5-16 8-4 4-8 8-11 13-3 5-5 10-5 15 0 6 2 11 5 16 2 5 6 9 11 12 4 4 9 7 15 9 5 2 11 3 17 3l81-1c19 0 36 4 53 10 16 7 30 16 43 28 12 12 21 25 28 41 7 15 11 32 11 50 0 16-3 32-10 47-6 15-14 28-25 39-11 12-24 21-39 28-15 7-31 12-48 14 0 0-1-1-1-1 0 0-1 0-1 0l-84 0 0-41c0-6-2-11-7-13-4-3-12-2-22 5-3 1-8 5-14 9-6 4-13 9-21 15-8 6-17 13-26 19l-26 20c-6 4-10 8-14 11-4 4-6 8-6 13 0 4 2 8 7 13 4 4 9 9 15 13 6 6 14 12 22 19 9 7 18 14 26 20 9 7 16 13 23 18 7 6 12 9 15 12 8 5 15 7 20 3 5-3 8-9 8-16l0-41 84 0c1 0 3-1 5-1 2 0 4-1 6-1 27-3 52-10 76-21 24-12 45-27 62-45 18-19 32-40 42-63 10-24 15-49 15-76 0-27-5-52-16-76z m-2 357c-57 51-133 82-216 82-55 0-107-13-153-37l-304 0 0-195 144 0c-7-22-11-45-13-68l-131 0 0-195 177 0c16-27 36-51 59-72l-457 0c-58 0-105 47-105 105l0 764c0 58 47 105 105 105l789 0c58 0 105-47 105-105l0-384 0 0z m-673 260l0-152 600 0 0 152-600 0z m-253 0l0-152 180 0 0 152-180 0z m0-210l0-195 180 0 0 195-180 0z m0-268l0-163c0-18 14-32 32-32l148 0 0 195-180 0z" horiz-adv-x="1053" />

<glyph glyph-name="csv" unicode="&#xe855;" d="M123 818l767 0 0 0c51 0 91-40 91-91l0-767c0-51-40-91-91-91l-767 0c-50 0-91 40-91 91l0 767 0 0c0 51 41 91 91 91l0 0z m213-213l0-182 577 0 0 182-577 0z m-236 0l0-182 168 0 0 182-168 0z m0-237l0-182 168 0 0 182-168 0z m0-250l0-154c0-15 12-28 27-28l0 0 141 0 0 182-168 0z m236 246l0-182 577 0 0 182-577 0z m0-246l0-182 577 0 0 182-577 0z" horiz-adv-x="1000" />

<glyph glyph-name="connection-o" unicode="&#xe856;" d="M767 363c0 33 0 58 0 73-2-2-4-4-6-5-20-15-47-29-79-41-66-24-158-39-274-39-173 0-284 30-344 76-4 3-8 6-11 9-1 0-1-39-2-117 0-7 0-11 0-13 0-2 1-5 2-7 0-2 1-4 1-6 1-2 2-3 3-5 1-2 2-4 3-6 1-1 3-3 4-4 2-2 3-4 6-6 1-1 2-3 4-4 2-2 5-5 8-7 1-1 3-2 4-3 4-2 7-5 12-7 1-1 2-1 3-2 5-3 10-5 15-8 8-4 14-6 21-9 37-15 74-22 128-30 11-2 22-3 33-4 2 0 4-1 6-1 9-1 19-2 29-2 5-1 9-1 14-1 8-1 15-1 23-1 12-1 25-1 38-1 14 0 27 0 39 1 8 0 15 0 23 1 5 0 9 0 14 1 1 0 3 0 4 0-4-11-7-22-9-33-22-1-46-2-71-2-173 0-284 31-344 76-4 3-8 6-11 9-1 0-1-44-2-133 19-55 160-114 357-111 32 1 65 2 94 4 3-5 10-19 22-40-7-2-15-4-26-5-16-1-52-3-90-3-208 0-376 70-395 148-1 2-2 5-2 7l0 589c0 2 1 5 2 7 19 68 156 136 395 136 240 0 377-68 396-136 1-2 2-5 2-7l0-347c-10 4-28 7-39 9z m-1 267c-2-2-4-3-6-5-1-1-2-2-3-3-5-3-10-7-15-11-1 0-3-1-4-2-4-3-9-5-14-8-2-1-4-2-6-3-6-3-12-6-18-8-1-1-2-1-3-2-7-3-15-6-23-8-2-1-4-2-7-3-6-2-13-4-20-6-2-1-5-1-7-2-9-3-19-5-28-7-2 0-3-1-5-1-8-2-17-4-26-5-4-1-7-1-10-2-9-1-18-3-27-4-3 0-5 0-7-1-12-1-24-2-36-3-3-1-6-1-9-1-10-1-20-1-30-2-4 0-8 0-12 0-13-1-27-1-41-1-14 0-28 0-41 1-4 0-8 0-11 0-11 1-21 1-30 2-4 0-7 0-10 1-12 1-24 2-36 3-2 1-4 1-7 1-9 1-18 3-27 4-3 1-6 1-9 2-10 1-19 3-27 5-2 0-3 1-4 1-10 2-20 4-29 7-2 1-5 1-7 2-7 2-14 4-20 6-2 1-5 2-7 3-8 2-16 5-23 8-1 1-2 1-3 2-6 2-12 5-18 8-2 1-4 2-5 3-6 3-10 6-15 8-1 1-2 2-4 2-5 4-10 8-15 11-1 1-2 2-3 3-2 2-4 3-6 5l0-114c0-7 0-11 0-13 0-2 1-5 1-7 1-2 1-4 2-6 1-1 1-3 2-4 1-2 2-4 4-6 1-1 2-3 3-4 2-2 4-4 6-6 1-1 3-3 4-4 2-2 5-4 8-6 1-1 3-2 4-3 4-3 7-5 11-7 1-1 2-2 4-2 4-3 9-5 14-8 1 0 2 0 2-1 6-2 12-5 19-8 36-14 81-26 133-33 11-2 22-3 32-5 2 0 4 0 6 0 9-1 19-2 28-3 5 0 10 0 14 0 8-1 15-1 22-2 13 0 25 0 38 0 13 0 26 0 38 0 7 1 15 1 22 2 5 0 9 0 14 0 10 1 19 2 28 3 2 0 4 0 6 0 11 2 21 3 31 4 54 8 99 20 134 34 7 3 13 5 19 8 1 1 1 1 2 1 5 3 10 5 15 8 1 0 2 1 3 2 4 2 8 4 11 7 2 1 3 2 4 3 3 2 6 4 8 6 2 1 3 3 4 4 2 2 4 4 6 6 1 1 2 3 3 4 2 2 3 4 4 6 1 1 2 3 2 4 1 2 2 4 2 6 1 2 1 5 1 7 0 2 0 6 0 13l0 114z m-357 178c-210 0-357-61-357-116 0-54 147-115 357-115 211 0 357 61 357 115 0 55-146 116-357 116z m318-946c-139 0-252 113-252 253 0 139 113 252 252 252 140 0 253-113 253-252 0-140-113-253-253-253z m0 39c118 0 213 96 213 214 0 118-95 213-213 213-118 0-213-95-213-213 0-118 95-214 213-214z m-62 264l0 0-49-48c-4-4-8-6-13-6-5 0-9 2-13 6-7 7-7 18 0 25l79 79c3 4 8 6 13 6 1 0 1 0 1 0 10 0 18-9 18-19l0-195c0-10-8-18-18-18-10 0-18 8-18 18l0 152z m125-109l0 0 49 49c3 4 8 5 13 5 5 0 9-1 13-5 7-7 7-19 0-26l-79-79c-4-4-9-5-14-5 0 0 0 0 0 0-10 0-19 8-19 18l0 195c0 10 9 19 19 19 10 0 18-9 18-19l0-152z" horiz-adv-x="987" />

<glyph glyph-name="application-o" unicode="&#xe857;" d="M433 850l433-250 0-500-433-250-433 250 0 500 433 250z m0-91l-354-204 0-409 354-205 354 205 0 409-354 204z m37-439l0-259c0-18-15-33-34-33-9-1-18 3-24 9-6 6-10 15-10 24l0 259-234 136c-12 7-18 20-16 33 1 14 11 25 24 28 9 2 18 1 25-3l235-135 233 135c7 4 16 5 25 3 9-2 16-8 20-16 9-15 4-36-12-45l-232-134 0-2 0 0z" horiz-adv-x="909" />

<glyph glyph-name="scientist" unicode="&#xe858;" d="M937 850c44 0 80-35 80-79l0-832c0-44-36-79-80-79l-831 0c-44 0-80 35-80 79l0 832c0 44 36 79 80 79l831 0z m-756-524c7-8 17-12 28-12 10 0 20 4 28 12l155 156c15 15 15 40 0 56l-155 157c-16 15-41 15-56 0-16-16-16-41-1-56l128-129-128-128c-15-15-15-40 1-56z m198 29c0-22 17-39 39-39l220-1c22 0 40 18 40 39 0 22-18 40-40 40l-219 0c-22 0-40-17-40-39z" horiz-adv-x="1053" />

<glyph glyph-name="setting" unicode="&#xe859;" d="M965 441c4-28 7-53 6-76 0-24-2-49-6-77l-4-26-78-26c-7-21-16-42-26-61l37-74-15-21c-16-22-33-42-50-59-17-17-36-34-59-50l-21-15-73 37c-20-10-41-19-62-26l-26-78-25-4c-28-4-54-7-77-7-24 0-49 3-77 7l-26 4-26 78c-21 7-41 16-61 26l-74-37-21 15c-23 17-42 33-59 50-17 18-34 37-49 59l-15 21 36 73c-10 20-18 41-25 62l-78 26-4 25c-5 28-7 53-7 77 0 24 2 49 7 77l4 26 78 26c7 21 15 41 25 61l-37 74 15 21c31 42 67 78 109 109l21 15 74-37c19 10 40 18 61 25l26 78 26 4c29 5 53 7 77 7 24 0 48-2 77-7l25-3 26-78c21-7 42-16 61-26l74 37 21-15c42-30 78-67 109-109l15-21-37-73c10-20 19-41 26-62l78-26 4-26z m-479 109c-102 0-186-83-186-186 0-102 84-185 186-185 102 0 186 83 186 185 0 103-84 186-186 186z m77-263c-21-20-48-32-77-32-29 0-57 12-77 32-21 21-32 48-32 77 0 29 11 57 32 77 20 21 48 32 77 32 29 0 56-11 77-32 20-20 32-48 32-77 0-29-12-56-32-77z" horiz-adv-x="1000" />

<glyph glyph-name="formula" unicode="&#xe85a;" d="M378 163l55 57c10 11 11 28 0 39-10 10-26 10-36 0l-56-58-55 58c-10 10-27 10-37 0-10-11-10-28 0-39l55-57-55-58c-10-11-10-28 0-39 10-10 27-10 37 0l55 58 56-58c10-10 26-10 36 0 11 11 11 28 0 39l-55 58z m39 420l-72 0 0 75c0 14-11 25-24 25-13 0-24-11-24-25l0-75-72 0c-13 0-24-11-24-25 0-14 11-25 24-25l72 0 0-75c0-13 11-25 24-25 14 0 24 12 24 25l0 75 72 0c13 0 24 12 24 25 0 14-11 25-24 25z m439 267l-671 0c-79 0-143-67-143-150l0-700c0-83 64-150 143-150l671 0c80 0 144 67 144 150l0 700c0 83-64 150-144 150z m96-850c0-55-43-100-95-100l-672 0c-53 0-95 45-95 100l0 700c0 55 42 100 95 100l672 0c52 0 95-45 95-100l0-700z m-134 586l-192 0c-13 0-24-11-24-25 0-14 11-25 24-25l192 0c13 0 24 11 24 25 0 14-11 25-24 25z m-96-536c14 0 24 11 24 25 0 14-10 25-24 25-13 0-24-11-24-25 0-14 11-25 24-25z m-24 192c0-14 11-25 24-25 14 0 24 11 24 25 0 14-10 25-24 25-13 0-24-11-24-25z m118-59l-191 0c-13 0-24-11-24-25 0-14 10-25 24-25l191 0c13 0 24 12 24 25 0 14-10 25-24 25z" horiz-adv-x="1000" />

<glyph glyph-name="invisible" unicode="&#xe85b;" d="M900 33l-38 54c125 83 206 201 206 251 0 83-213 341-477 341-45 0-89-7-130-19l-41 58c54 18 111 29 171 29 301 0 545-306 545-409 0-67-93-207-236-305l0 0z m-309 441c0 0 0 0 0 0l-44 64c14 3 29 5 44 5 113 0 204-92 204-205 0-40-12-78-32-110l-44 64c5 14 8 30 8 46 0 75-61 136-136 136z m342-608c-15-10-37-7-47 9l-646 921c-10 16-7 37 9 48 15 11 36 7 47-9l646-921c10-16 7-37-9-48z m-342 336c8 0 15 1 23 2l41-59c-20-7-42-11-64-11-113 0-205 91-205 204 0 48 18 92 45 126l42-59c-11-20-18-42-18-67 0-75 61-136 136-136l0 0z m-259 403c-131-76-218-195-218-267 0-85 213-341 477-341 52 0 102 10 148 27l40-56c-59-24-122-39-188-39-301 0-545 307-545 409 0 86 99 229 249 321l37-54 0 0z" horiz-adv-x="1182" />

<glyph glyph-name="visible" unicode="&#xe85c;" d="M650-60c-331 0-600 337-600 450 0 149 269 450 600 450 332 0 600-336 600-450 0-119-268-450-600-450z m0 825c-290 0-525-251-525-375 0-94 235-375 525-375 290 0 525 286 525 375 0 92-235 375-525 375z m0-600c-80 0-155 43-195 113-40 69-40 155 0 225 40 69 115 112 195 112 124 0 225-101 225-225 0-124-101-225-225-225l0 0z m0 375c-54 0-103-29-130-75-27-46-27-104 0-150 27-46 77-75 130-75 83 0 150 67 150 150 0 83-67 150-150 150l0 0z" horiz-adv-x="1300" />

<glyph glyph-name="engine" unicode="&#xe85d;" d="M68 124l0 666 934 0 0-247c3-16 12-24 30-25 18 0 27 8 29 25l0 307-1060 0 0-789 380 0c21 0 32 10 31 32 0 21-11 32-31 31l-313 0z m177-176c-22-2-33-14-33-34 1-21 12-33 33-35 75 0 135 0 179 0 15 0 31 12 31 35 0 22-12 34-31 34-55 0-115 0-179 0z m608-69c-11 11-44 42-72 42-28 0-62-31-72-41-7-9-19-14-32-14-6 0-11 1-16 3l-85 48c-16 11-22 32-15 49 1 0 8 18 8 34 0 49-40 89-89 89l-3 0c-14 0-26 13-29 32-1 1-8 38-8 67 0 29 7 66 8 67 3 20 15 32 29 32l3 0c49 0 89 40 89 89 0 16-7 34-8 34-7 17-1 38 14 49l90 49c6 2 11 3 17 3 12 0 24-4 32-13 10-11 44-39 70-39 27 0 60 28 70 38 8 9 20 13 32 13 6 0 12-1 17-3l86-48c17-11 22-32 15-49 0 0-8-18-8-34 0-49 40-89 89-89l3 0c14 0 26-12 30-32 0-1 7-38 7-67 0-29-7-66-7-67-4-20-16-32-30-32l-3 0c-49 0-89-40-89-89 0-16 8-34 8-34 7-17 2-38-14-49l-88-48c-6-3-11-4-17-4-12 0-24 5-32 14z m22 49c0 0 1-1 2-1l0 0 75 42c-1 4-10 24-10 46 0 63 51 116 113 119 1 5 6 33 6 54 0 21-5 49-6 54-62 3-113 56-113 119 0 22 9 42 10 46l-73 41c0 0-1 0-1 0-1 0-2 0-2 0-2-2-12-13-28-23-22-16-44-24-64-24-20 0-41 8-64 24-16 11-26 22-28 23 0 1-1 1-2 1 0 0-1 0-1 0l-76-42c2-4 10-24 10-46 0-63-50-116-113-119-1-5-6-33-6-54 0-21 5-49 6-54 63-3 113-56 113-119 0-22-8-42-10-46l72-41c0 0 0 0 0 0 1 0 2 1 3 1 1 1 12 13 28 24 23 17 45 26 65 26 20 0 43-9 66-26 16-12 27-24 28-25l0 0z m-94 142c-65 0-118 53-118 118 0 66 53 119 118 119 66 0 119-53 119-119 0-65-53-118-119-118z m0 191c-40 0-72-33-72-73 0-39 32-72 72-72 40 0 72 33 72 72 0 40-32 73-72 73z" horiz-adv-x="1136" />

<glyph glyph-name="cancel-collaborate" unicode="&#xe85e;" d="M690 144l31 51c2-1 4-3 5-4 65-51 113-118 144-200 8-24 15-50 20-79 2-15-9-30-24-33-2 0-4-1-6-1-14 0-26 10-29 23-9 49-23 91-44 127-24 43-54 79-88 109-3 2-6 5-9 7z m-90 53c-19 8-39 14-60 19-33 8-66 12-98 12-96 0-184-36-261-107-60-55-98-126-115-211-1-8-3-15-7-20-6-8-14-12-23-12-5 0-10 1-15 3-12 5-17 17-15 32 10 54 28 106 55 152 48 82 116 143 203 183 11 5 22 9 34 14 2 1 5 2 7 5 2 1 2 2 2 4-1 2-2 4-3 4-79 51-124 121-135 209-9 84 14 158 72 221 53 59 128 92 207 92 79 0 152-32 206-91 60-65 84-142 71-230-12-84-57-152-133-201-2-2-3-4-3-6 0-3 2-4 4-5 11-4 24-9 36-15 1 0 1 0 2 0l-31-52z m-152 92c126 0 227 102 228 227 0 125-102 227-228 228-125 0-226-102-227-227 0-61 23-118 66-161 43-43 100-67 161-67z m495 276c2-8 4-17 5-25 2-16 2-32 1-49-4-45-20-84-48-120-28-34-62-58-101-71-12-4-19-15-18-29 1-12 11-22 23-23 5-1 10-2 15-3 8-1 17-2 25-4 87-17 155-65 202-140 35-55 51-118 46-185-1-9 2-16 8-22 5-6 12-9 19-9 2 0 4 1 8 1 13 3 21 13 22 29 3 60-7 116-29 167-34 76-87 135-160 176-17 9-37 18-60 26-2 1-4 2-4 4-1 3 0 5 2 6l5 5c3 3 7 6 10 9 4 5 9 9 13 14 67 73 90 158 68 251-4 18-10 35-17 50l-35-58z m-60 104c-5 5-11 10-17 15-26 21-57 36-91 44-20 4-41 5-60 5-13 0-23 8-26 21-2 7 0 14 5 21 5 6 13 10 22 10 4 0 8 0 12 0 38 0 73-7 105-21 23-10 43-22 61-35 6-4 11-9 17-14l-28-46z m130 117l0 0 0 0c17-10 22-31 12-47l-513-858 0 0c-10-17-31-22-47-12 0 0 0 0 0 0l0 0 0 0c-16 10-22 31-12 47l513 858 0 0c10 16 31 22 47 12 0 0 0 0 0 0z" horiz-adv-x="1158" />

<glyph glyph-name="person-pencil" unicode="&#xe85f;" d="M1000 207c0 12-5 23-13 32l-77 77c-9 8-20 13-32 13 0 0 0 0 0 0-13 0-24-5-33-13l-103-104c-45 42-98 74-157 95 87 50 146 144 146 252 0 160-131 291-291 291-161 0-291-131-291-291 0-109 60-203 148-253-173-61-297-226-297-420l62 0c0 211 171 382 380 382 99 0 188-38 256-100l-111-111c-5-4-9-10-10-16l-28-126c-2-10 1-21 8-29 6-6 14-9 22-9 3 0 5 0 7 1l126 28c6 1 12 5 16 10l79 78c10-34 15-70 15-108l63 0c0 56-11 109-29 158l131 130c8 9 13 20 13 33z m-560 123c-126 0-229 103-229 229 0 126 103 229 229 229 126 0 228-103 228-229 0-126-102-229-228-229z m196-312l165 165 53-53-165-165-69-16 16 69z m262 156l-53 53 33 33 53-53-33-33z" horiz-adv-x="1000" />

<glyph glyph-name="add-filter" unicode="&#xe860;" d="M559-150c-10 0-19 4-26 11-7 8-11 17-11 27l0 564c0 9 4 18 10 25l242 275-654 0 244-275c6-7 9-16 9-25l0-339 59-49c16-13 18-36 5-52-6-8-15-13-25-14-9-1-19 2-27 8l-73 60c-8 7-14 18-14 29l0 342-288 328c-10 11-13 27-7 40 6 14 20 22 34 22l821 0c15 0 28-8 34-22 6-14 3-29-6-40l-289-328 0-549c0-10-4-19-11-27-7-7-17-11-27-11l0 0z m403 381l-252 0c-21 0-38-17-38-38 0-21 17-38 38-38l252 0c21 0 38 17 38 38 0 21-17 38-38 38l0 0z m-85 88c0 20-17 37-38 37-21 0-38-17-38-37l0-253c0-21 17-38 38-38 21 0 38 17 38 38l0 253z" horiz-adv-x="1000" />

<glyph glyph-name="edit" unicode="&#xe861;" d="M830-41l-799 0c-14 0-31-8-31-34 0-26 17-34 31-34l799 0c13 0 33 9 34 34 0 25-21 34-34 34z m-604 16c10 0 19 3 28 7 0 0 1 1 1 1 1 0 87 51 143 84 26 15 48 36 65 60l285 405c0 0 0 0 0 0 0 1 0 1 0 1l45 63c29 41 19 97-22 126l-124 87c-12 9-29 14-46 14-23 0-42-9-53-25-5-6-277-391-356-503-17-25-27-54-29-84l-12-158c-1-18 5-36 18-50 15-17 36-28 57-28z m373 782c0 0 1 0 2 0 4 0 8-1 8-1l124-88c12-8 14-23 6-34l-26-37-152 107c19 27 33 46 38 53z m-76-106l153-108-267-378c0-1-1-2-1-2l-43 57c0 0 0 1 0 1-8 10-19 18-32 22l-79 26c57 81 186 263 269 382z m-306-604l11 160c0 0 0 1 0 1l85-27 45-62c-50-29-118-69-133-78-3 1-7 4-8 6 0 0 0 0 0 0z" horiz-adv-x="864" />

<glyph glyph-name="gauge" unicode="&#xe862;" d="M491 714c-255 0-464-214-464-473 0-59 9-118 37-173 4-13 22-22 41-13s22 22 13 41c-18 45-27 90-27 145l0 0c0 232 182 409 405 409s404-186 404-409c0-55-9-105-27-150-5-14 0-36 13-41 5 0 5 0 10 0 9 0 22 5 22 18 23 55 37 114 37 173 0 259-209 473-464 473m173-259l-123-232c5-9 9-18 9-27 0-37-23-60-59-60-36 0-59 23-59 60 0 36 23 59 54 59l123 231c9 14 23 19 41 10 14-5 18-28 14-41" horiz-adv-x="1000" />

<glyph glyph-name="category" unicode="&#xe863;" d="M78 850l672 0c43 0 78-41 78-91l0-818c0-50-35-91-78-91l-672 0c-43 0-78 41-78 91l0 818c0 50 35 91 78 91z m18-59c-20 0-37-20-37-44l0-797c0-24 17-44 37-44l640 0c20 0 37 20 37 44l0 797c0 24-17 44-37 44l-640 0z m688-247l138 0c43 0 78-41 78-91l0-512c0-50-35-91-78-91l-190 0 52 30 0 664z m18-60l0-578 106 0c21 0 38 20 38 44l0 490c0 25-17 44-38 44l-106 0z m-575 139l364 0c25 0 45-21 45-46l0-136c0-25-20-45-45-45l-364 0c-25 0-45 20-45 45l0 136 0 0c0 25 20 46 45 46l0 0z m9-55l0-118 346 0 0 118-346 0z m-9-263l364 0c25 0 45-21 45-46l0-136c0-25-20-46-45-46l-364 0c-25 0-45 21-45 46l0 136 0 0c0 25 20 46 45 46l0 0z m9-55l0-118 346 0 0 118-346 0z" horiz-adv-x="1000" />

<glyph glyph-name="tree-map" unicode="&#xe864;" d="M23 673h609c14 0 23-14 23-27v-264c0-14-9-27-23-27h-609c-14 0-23 13-23 27v264l0 0c0 18 9 27 23 27l0 0z m227-359h727c14 0 23-14 23-28v-263c0-14-9-28-23-28h-727c-14 0-23 14-23 28v263c5 14 14 28 23 28z m468 359h259c14 0 23-14 23-27v-264c0-14-9-27-23-27h-259c-13 0-22 13-22 27v264l0 0c4 18 13 27 22 27z m-695-359h136c14 0 23-14 23-28v-263c0-14-9-28-23-28h-136c-14 0-23 14-23 28v263c0 14 9 28 23 28l0 0z" horiz-adv-x="1000" />

<glyph glyph-name="sankey" unicode="&#xe865;" d="M162 467c64 18 114 45 178 82 9 4 22 13 31 18-90 82-204 145-372 145v-209c68 0 118-13 163-36l0 0z m591-241c-109-18-186-50-254-82 113-95 263-173 504-173v210c-104 4-186 18-250 45z m-568 223c0-5 5-5 5-5 0 5-5 5-5 5z m246-246c59 32 122 64 213 87-18 13-32 27-50 41-41-19-77-41-113-60-23-13-50-27-73-40l23-28z m213 87c0 0 0 0 0 0 32-23 68-46 109-64 68 9 150 18 250 18v87c-154 0-268-19-359-41l0 0z m-150-146c-23 18-45 41-63 59-14-4-23-13-37-18-109-59-200-109-391-109v-86c214 0 318 54 428 118 18 13 40 27 63 36z m0 0c68 32 146 64 255 82-41 18-78 36-109 64-87-23-155-55-214-87 23-18 45-41 68-59z m-123 423c41-36 78-77 114-118 36-41 73-82 109-114 91 36 209 73 405 73v313c-332 0-500-81-628-154z m37-336l0 0c-27 27-46 50-68 72-64 68-114 128-178 164-45-14-95-23-163-23v-313c182 0 300 40 391 90 9 5 13 5 18 10l0 0 0 0z m77 218c-36 36-73 77-114 118-13-9-22-14-31-18-64-37-114-68-178-82 64-36 114-96 178-164 22-22 45-50 68-72 27 13 50 27 73 40 36 23 72 41 113 60-41 36-77 77-109 118z" horiz-adv-x="1000" />

<glyph glyph-name="dart" unicode="&#xe866;" d="M548 366c-4 4-8 7-13 9l-160 100 101-160c2-5 4-9 8-13l1-2 1 0c8-8 19-12 32-12 25 0 45 20 45 45 0 13-6 24-14 33l0 0-1 0 0 0z m-49 297l-13 0 1-156c0-14 12-25 26-25 15 0 26 12 26 26l0 2 1 98c132-18 223-120 224-258 0-151-113-263-264-263-151-1-261 112-262 263-1 77 28 145 79 195 1 0 2 1 2 2 8 8 4 21-4 28-7 7-25 7-32 0 0 0 0 0 0 0l-2-2c-58-57-94-136-93-224 0-173 141-312 313-311 173 1 312 141 312 314 0 172-141 311-314 311l0 0z m1 187c-276 0-500-224-500-500 0-277 224-500 500-500 115 0 223 39 311 109 11 8 13 23 4 34-8 11-23 12-34 4-79-63-177-98-281-98-249 0-451 202-451 452 0 249 202 451 451 451 250 0 451-202 451-451 0-86-23-168-68-239-7-11-3-26 8-33 11-8 27-4 34 7 49 79 75 169 75 265 0 275-224 499-500 499z" horiz-adv-x="1000" />

<glyph glyph-name="calendar" unicode="&#xe867;" d="M464 265l72 0c20 0 35 17 35 37 0 20-15 37-35 37l-72 0c-20 0-35-17-35-37 0-20 15-37 35-37z m0-146l72 0c20 0 35 16 35 37 0 20-15 36-35 36l-72 0c-20 0-35-16-35-36 0-21 15-37 35-37z m393 658l-143 0 0 37c0 20-15 36-35 36-20 0-36-16-36-36l0-37-286 0 0 37c0 20-16 36-36 36-20 0-35-16-35-36l0-37-143 0c-79 0-143-66-143-146l0-585c0-80 64-146 143-146l714 0c79 0 143 66 143 146l0 585c0 80-64 146-143 146z m72-731c0-40-33-73-72-73l-714 0c-39 0-72 33-72 73l0 439 858 0 0-439z m0 512l-858 0 0 73c0 40 33 73 72 73l143 0 0-37c0-20 15-36 35-36 20 0 36 16 36 36l0 37 286 0 0-37c0-20 16-36 36-36 20 0 35 16 35 36l0 37 143 0c39 0 72-33 72-73l0-73z m-679-439l71 0c20 0 36 16 36 37 0 20-16 36-36 36l-71 0c-20 0-36-16-36-36 0-21 16-37 36-37z m429 146l71 0c20 0 36 17 36 37 0 20-16 37-36 37l-71 0c-20 0-36-17-36-37 0-20 16-37 36-37z m-429 0l71 0c20 0 36 17 36 37 0 20-16 37-36 37l-71 0c-20 0-36-17-36-37 0-20 16-37 36-37z m429-146l71 0c20 0 36 16 36 37 0 20-16 36-36 36l-71 0c-20 0-36-16-36-36 0-21 16-37 36-37z" horiz-adv-x="1000" />

<glyph glyph-name="folder-open" unicode="&#xe868;" d="M1046 565l-3 0 0 59c0 53-44 97-98 97l-389 0 0 32c0 44-31 82-69 93-15 3-28 4-28 4l-362 0c-53 0-97-44-97-97l0-750c0-53 44-97 97-97l842 0c53 0 95 42 104 97l100 465c0 53-44 97-97 97l0 0z m-935 216l334 0c31 0 52-19 52-42l0-87 435 0c23 0 41-19 41-42l0-45-769 0c-53 0-93-43-104-97l-30-164 0 435c0 23 18 42 41 42z m862-765c-3-24-25-41-48-41l-814 0c-23 0-41 18-41 41l100 437c6 24 25 42 48 42l814 0c23 0 41-19 41-42l-100-437z" horiz-adv-x="1143" />

<glyph glyph-name="folder" unicode="&#xe869;" d="M1010-91l-866 0c-79 0-144 64-144 144l0 673c0 79 38 124 117 124l348 0c102 0 140-51 141-139l404 0c80 0 144-70 144-149l0-509c0-80-65-144-144-144z m72 653c0 39-33 72-72 72l-476 0 0 72c0 40-33 72-73 72l-317 0c-40 0-72-32-72-72l0-217 1010 0 0 73z m-1010-145l0-364c0-40 32-72 72-72l866 0c39 0 72 32 72 72l0 364-1010 0z" horiz-adv-x="1154" />

<glyph glyph-name="lock" unicode="&#xe86a;" d="M429 850c134 0 277-53 428-161l-16-368c-5-102-41-151-74-200-7-11-15-20-23-29-28-31-89-92-184-154-69-40-113-59-131-60-19 0-65 20-140 59-114 74-178 155-183 163-40 55-82 117-89 221l-17 368c146 107 289 161 429 161z m249-460c37-6 75-13 105-19l13 283c-49 26-214 135-367 135-160 0-319-108-367-134l11-229c40 9 61 12 81 17 12 58 43 110 88 149 51 45 117 69 184 69 112 0 212-67 255-166 2-3-54-26-56-23-34 77-112 129-199 129-108 0-201-80-216-186-1-7-3-13-7-16-3-4-8-7-15-9-37-9-51-10-113-25l2-41c7-95 47-148 79-191 1 0 60-76 166-146 58-31 94-46 107-46 13 0 46 16 98 47 93 61 152 120 172 144 7 7 13 14 18 22 28 43 57 79 63 156-25 6-56 11-82 16-13-55-42-106-85-144-51-46-118-72-187-72-63 1-124 22-173 60-42 33-73 74-90 123 26 6 40 11 60 15 31-82 112-138 203-138 54 0 106 20 146 56 40 36 65 85 71 138 1 12 5 20 12 24 6 4 14 5 23 2z m-24 61c17 0 31 13 31 30 0 17-14 31-31 31-16 0-30-14-30-31 0-17 14-30 30-30z m-461-183c17 0 31 14 31 31 0 17-14 31-31 31-17 0-30-14-30-31 0-17 13-31 30-31z m235 225c-29 0-53-25-53-57 0-18 9-36 24-47l0-79c0-17 13-31 30-31 16 0 29 14 29 31l0 79c15 11 24 29 24 47 0 32-24 57-54 57l0 0z" horiz-adv-x="857" />

<glyph glyph-name="funnel" unicode="&#xe86b;" d="M534-123l180 502 279 406 0 0c9 12 6 29-7 38-4 3-10 4-15 4l-471 0-471 0 0 0c-15 0-27-12-27-27 0-5 2-11 5-15l279-406 180-502 0 0c7-19 27-28 46-22 11 4 19 12 22 22z m-94 194l127 0-67-170-60 170z m-14 43l-72 204 296 0-73-204-151 0z m234 248l-315 0-19 42-113 159 578 0-111-159-20-42z m161 243l-639 0-116 174 878 0-123-174z" horiz-adv-x="1000" />

<glyph glyph-name="terminal" unicode="&#xe86c;" d="M1 813l0-912 0 0c0-19 16-35 35-35l1000 0 0 0c19 0 35 16 35 35l0 912 0 0c0 20-16 36-35 36l-1000 0 0 0c-19 0-35-16-35-36z m53-891l0 635 962 0 0-635-962 0z m962 683l-962 0 0 187 962 0 0-187z m-332 60c20 0 35 16 35 35 0 20-15 35-35 35-19 0-35-15-35-35 0-19 16-35 35-35z m123 0c20 0 35 16 35 35 0 20-15 35-35 35-19 0-35-15-35-35 0-19 16-35 35-35z m123 0c19 0 35 16 35 35 0 20-16 35-35 35-19 0-35-15-35-35 0-19 16-35 35-35z m-136-580c1 0 2 0 3 0 17 0 31-14 31-31 0-17-14-30-30-31l0 0-291 0 0 0c-16 0-30 14-30 31 0 17 14 31 30 31 1 0 2 0 3 0l284 0 0 0z m-573-12c-6-5-10-13-10-22 0-17 13-30 29-30 9 0 17 4 23 11l196 192-199 194c-5 7-13 11-22 11-17 0-30-14-30-30 0-9 4-18 11-23l0 0 156-151-154-152 0 0z" horiz-adv-x="1088" />

<glyph glyph-name="pause" unicode="&#xe86d;" d="M83 850l0 0c46 0 84-37 84-83l0-834 0 0c0-46-38-83-84-83-46 0-83 37-83 83l0 834 0 0c0 46 37 83 83 83l0 0z m563 0c46 0 83-37 83-83l0-834c0-46-37-83-83-83-46 0-83 37-83 83l0 834 0 0c0 46 37 83 83 83z" horiz-adv-x="750" />

<glyph glyph-name="play-pause" unicode="&#xe86e;" d="M750 474l-570 356c-18 13-40 20-65 20-63 0-115-52-115-115l0-769c0-64 52-115 115-115 3 0 5 0 10 0 2 0 4 0 7 1 3 0 5 1 9 1 2 1 4 1 7 2 5 2 10 4 15 6 5 2 9 5 14 6l573 360 0-294c0-46 37-83 83-83 46 0 84 37 84 83l0 834c0 46-38 83-84 83-46 0-83-37-83-83l0 0 0-293z m458 376c46 0 84-37 84-83l0-834c0-46-38-83-84-83-46 0-83 37-83 83l0 834 0 0c0 46 37 83 83 83z" horiz-adv-x="1313" />

<glyph glyph-name="quit" unicode="&#xe86f;" d="M1000 350c0-17-7-32-19-43l0 0-196-173-1 0c-10-9-24-15-39-15-32 0-59 26-59 58 0 17 8 32 20 43l0 0 82 72-357 0 0 0c-32 0-58 26-58 58 0 32 26 58 58 58l0 0 357 0-82 72 0 0c-12 11-20 26-20 43 0 32 27 58 59 58 15 0 29-6 39-15l1 0 196-173 0 0c12-11 19-26 19-43z m-500 385l-382 0 0-770 382 0c33 0 59-25 59-57 0-32-26-58-59-58l-441 0c-33 0-59 26-59 58l0 884c0 32 26 58 59 58l441 0c33 0 59-26 59-58 0-32-26-57-59-57z" horiz-adv-x="1000" />

<glyph glyph-name="slides" unicode="&#xe870;" d="M656 653c12 12 32 12 45 0 1-1 33-34 97-98 12-12 12-32 0-45-13-12-33-12-45 0l-75 75c-142-143-214-215-215-216-6-6-14-9-21-9-9-1-18 2-25 9-1 1-33 33-96 97-12 12-12 33 0 45 12 12 33 12 45 0l74-74 216 216z m377 191l-969 0 0 0c-20 0-36-16-36-35l0 0 0 0c0-20 16-36 36-36l61 0 0-568 0 0c0-26 21-47 47-47l341 0 0-232-209 0 0 0c-20 0-37-17-37-37l0 0 0 0c0-20 17-37 37-37l502 0 0 0c20 0 37 17 37 37l0 0 0 0c0 20-17 37-37 37l-221 0 0 232 338 0 0 0c26 0 48 21 48 47l0 568 62 0 0 0c20 0 36 16 36 36l0 0 0 0c0 19-16 35-36 35z m-131-615l-709 0 0 544 709 0 0-544z" horiz-adv-x="1095" />

<glyph glyph-name="triangle-left" unicode="&#xe871;" d="M698-133c5-1 9-4 14-6 5-2 10-4 15-6 3-1 5-1 7-2 4 0 6-1 9-1 3-1 5-1 7-1 5 0 7 0 10 0 63 0 115 51 115 115l0 769c0 63-52 115-115 115-24 0-47-7-65-20l-608-380c-34-20-58-57-58-100 0-42 23-79 57-99l612-384z" horiz-adv-x="875" />

<glyph glyph-name="triangle-right" unicode="&#xe872;" d="M207-133c-5-1-10-4-15-6-5-2-9-4-14-6-3-1-6-1-8-2-3 0-6-1-8-1-4-1-6-1-8-1-4 0-7 0-9 0-64 0-116 51-116 115l0 769c0 63 52 115 116 115 24 0 46-7 65-20l607-380c35-20 58-57 58-100 0-42-23-79-57-99l-611-384z" horiz-adv-x="875" />

<glyph glyph-name="preview" unicode="&#xe873;" d="M504-91l-417 0c-6 0-11 2-14 7-5 4-7 8-7 14l0 841c0 3 1 5 2 7 2 3 3 5 5 7 2 2 5 4 7 5 3 1 5 2 8 2l758 0c5 0 10-3 14-7 4-4 6-9 6-14l0-494c0-16 14-29 31-29 18 0 32 13 32 29l0 495c0 21-9 40-25 55-16 15-36 23-58 23l-760 0c-10 0-21-2-32-7-10-4-19-10-26-17-8-7-14-15-18-24-4-10-7-20-7-31l0-843c0-22 8-40 25-56 16-14 36-22 58-22l418 0c17 0 31 13 31 30 0 16-14 29-31 29z m-309 367c-17 0-30-13-30-29 0-16 13-29 30-29l82 0c16 0 29 13 29 29 0 16-13 29-29 29l-82 0z m586 331c0 16-13 29-30 29l-556 0c-17 0-30-13-30-29 0-16 13-29 30-29l556 0c17 0 30 13 30 29z m-3-573c32 39 51 89 51 143 0 127-106 231-237 231-130 0-236-104-236-231 0-128 106-231 236-231 54 0 104 18 144 47l142-135c12-11 30-11 42 1 12 11 12 30 0 40l-142 135z m-186-30c-97 0-177 78-177 173 0 95 80 173 177 173 98 0 178-78 178-173 0-95-79-173-178-173l0 0z m-191 423c0 17-13 29-29 29l-177 0c-17 0-30-12-30-29 0-16 13-29 30-29l177 0c16 0 29 13 29 29z" horiz-adv-x="929" />

<glyph glyph-name="replace" unicode="&#xe874;" d="M410 850l-374 0c-20 0-36-17-36-40l0-366c0-22 15-39 36-39l374 0c20 0 36 17 36 39l0 366c0 23-16 40-36 40z m-28-353c0-18-12-32-28-32l-261 0c-16 0-29 14-29 32l0 254c0 18 13 32 29 32l261 0c7 0 14-3 19-9 6-6 9-14 9-23l0-254z m573-192l-374 0c-20 0-35-18-35-40l0-366c0-23 15-40 35-40l374 0c20 0 36 17 36 40l0 366c0 22-16 40-36 40z m-27-354c0-17-13-31-29-31l-261 0c-16 0-28 13-28 31l0 255c0 17 12 32 28 32l261 0c7 0 14-4 20-9 6-6 9-14 9-23l0-255z m-405 844c0 0 0 0 0 0 0 0 1 0 1 0 1 0 2 0 2 0 50-5 82-10 112-22 43-17 68-38 87-57 31-29 42-61 54-88 8-22 13-50 16-86l-70 0 0 0c-5 0-9-4-9-9 0-2 1-4 2-5l87-130 0 0c7-11 21-14 31-7 3 2 5 4 7 7l87 130 0 0c3 4 2 10-2 12-2 1-4 2-5 2l-72 0c0-1 0 9-3 30-8 59-34 145-107 203-33 27-73 47-107 56-48 13-68 16-102 19-2 0-3 0-4 0-16 0-28-12-28-28 0-13 10-24 23-27z m-105-890c0 1 0 1 0 1 0 0-1 0-1 0-1 0-2 0-2 0-50 4-82 10-112 21-43 17-68 39-87 57-31 30-42 62-54 89-8 21-13 50-16 86l70 0 0 0c5 0 9 4 9 9 0 2-1 3-2 5l-87 130 0 0c-7 11-21 13-31 6-3-1-5-3-7-6l-87-130 0 0c-3-4-2-10 2-13 2-1 4-1 5-1l72 0c0 1 0-9 3-30 8-59 34-145 107-204 33-26 73-47 107-56 48-12 68-15 102-18 2 0 3 0 4 0 16 0 28 12 28 27 0 14-10 25-23 27z" horiz-adv-x="1000" />

<glyph glyph-name="append" unicode="&#xe875;" d="M908 833c0 0 0 0 0 0l0 0-721 0 0 0c-17 0-30-14-30-31l0 0 0 0c0-17 13-30 30-30l0 0 691 0 0-691c0-16 14-30 31-30 17 0 30 14 30 30l0 721 0 0c0 17-13 31-30 31l0 0 0 0c0 0-1 0-1 0z m-517-531l-143 0 0 0c-17 0-31-13-31-30 0-17 14-31 31-31l143 0 0-143c0-17 14-31 31-31 17 0 30 14 30 31l0 143 144 0c17 0 30 14 30 31 0 17-13 30-30 30l-144 0 0 144 0 0c0 17-13 30-30 30l0 0 0 0c-17 0-31-13-31-30l0-144z m375 392l-728 0c-10 0-21-4-27-11-7-7-11-17-11-28l0-723c0-11 4-21 11-28 6-7 17-11 27-11l728 0c10 0 21 4 28 11 7 7 10 17 10 28l0 723c0 12-3 21-10 28-7 7-18 11-28 11z m-26-742l-684 0 0 681 684 0 0-681z" horiz-adv-x="957" />

<glyph glyph-name="data-analyst" unicode="&#xe876;" d="M166-150l-140 0c-14 0-26 11-26 24l0 298c0 14 12 24 26 24l140 0c15 0 26-10 26-24l0-298c0-13-11-24-26-24z m-35 61l0 224-69 0 0-224 69 0z m305-61l-141 0c-14 0-26 11-26 24l0 448c0 13 12 24 26 24l141 0c14 0 26-11 26-24l0-448c0-13-12-24-26-24z m-36 61l0 373-69 0 0-373 69 0z m305-61l-140 0c-15 0-26 11-26 24l0 347c0 13 11 24 26 24l140 0c14 0 26-11 26-24l0-347c0-13-12-24-26-24z m-36 61l0 273-69 0 0-273 69 0z m305-61l-140 0c-15 0-26 11-26 24l0 540c0 13 11 24 26 24l140 0c14 0 26-11 26-24l0-540c0-13-12-24-26-24z m-35 62l0 464-70 0 0-464 70 0z m-625 722l-133-143c7-13 11-28 11-45 0-53-43-96-96-96-53 0-96 43-96 96 0 53 43 96 96 96 15 0 28-3 40-8l139 148c-4 11-6 22-6 33 0 54 43 97 96 97 54 0 97-43 97-97 0-6-1-13-3-20l120-94c15 12 35 18 56 18 23 0 45-8 62-23l122 113c-7 13-11 28-11 45 0 53 43 96 96 96 53 0 96-43 96-96 0-53-43-96-96-96-14 0-28 3-40 8l-135-124c1-6 2-12 2-19 0-53-43-96-96-96-53 0-96 43-96 96 0 10 1 19 4 28l-115 91c-17-14-39-23-63-23-18 0-36 6-51 15l0 0z m-217-223c19 0 34 16 34 35 0 19-15 34-34 34-19 0-35-15-35-34 0-19 16-35 35-35z m538 77c19 0 35 16 35 35 0 19-16 34-35 34-19 0-35-15-35-34 0-19 16-35 35-35z m-269 192c19 0 34 16 34 35 0 19-15 35-34 35-19 0-35-16-35-35 0-19 16-35 35-35z m538 39c19 0 35 15 35 34 0 20-16 35-35 35-19 0-34-15-34-35 0-19 15-34 34-34z" horiz-adv-x="1000" />

<glyph glyph-name="data-admin" unicode="&#xe877;" d="M531 15l0-80-62 0 0 80-438 0c-17 0-31 14-31 31 0 17 14 31 31 31l937 0c17 0 31-14 31-31 0-17-14-31-31-31l-437 0 0 0z m-154-80l246 0c17 0 31-14 31-31 0-17-14-31-31-31l-246 0c-17 0-31 14-31 31 0 17 14 31 31 31z m-346 888l937 0c17 0 31-14 31-31 0-17-14-30-31-30l-937 0c-17 0-31 13-31 30 0 17 14 31 31 31z m529-585c7 2 14 5 19 11l281 335c11 13 9 32-4 43-13 11-32 9-43-4l-262-311-144 144c-10 9-24 11-36 6-6-2-12-5-16-10l-168-202c-11-13-9-32 4-43l0 0c12-10 32-9 42 4l151 181 145-146c9-8 21-11 31-8l0 0z m-483 470l885 0 0-577-885 0 0 577z" horiz-adv-x="1000" />

<glyph glyph-name="sys-admin" unicode="&#xe878;" d="M804 591l-3 16-49 17c-5 13-10 26-17 39l24 46-10 14c-19 26-42 50-69 69l-13 9-47-23c-12 6-25 12-39 16l-16 49-16 3c-18 3-34 4-49 4-15 0-30-1-49-4l-16-3-16-49c-14-5-27-10-39-16l-47 23-13-10c-27-19-50-42-69-68l-10-14 24-46c-7-13-12-26-16-39l-50-17-2-16c-3-18-5-34-5-49 0-15 2-31 5-49l2-16 50-16c4-14 9-27 16-39l-24-47 10-13c10-14 20-26 32-37 10-11 22-21 37-32l13-9 47 23c12-7 25-12 39-16l16-50 16-2c18-3 34-5 49-5 15 0 31 2 49 5l16 2 17 50c13 4 26 9 38 16l47-24 13 10c15 11 27 21 38 32 11 11 21 23 31 37l10 13-24 47c7 12 12 26 17 39l49 16 3 17c2 17 4 33 4 48 0 15-1 31-4 49z m-59-44l0 0c0-9-1-18-2-27l-23-7-20-7-6-20c-3-12-8-23-13-34l-10-18 20-40c-6-7-12-14-18-20l0 0c-6-6-13-12-20-18l-40 20-18-9c-11-6-22-11-34-14l-20-7-6-19-8-23c-9-1-18-1-27-1-8 0-17 0-26 1l-8 23-6 20-20 6c-12 3-23 8-34 14l-18 9-19-9-21-11c-8 6-14 12-20 18-6 6-12 13-18 20l20 40-10 18c-5 11-10 22-14 34l-6 20-42 14c-1 9-2 18-2 26 0 9 1 18 2 27l42 14 6 20c4 12 9 23 14 34l10 18-9 19-11 21c11 14 24 27 38 38l39-20 19 10c11 5 22 10 34 14l20 6 6 20 8 22c9 1 18 2 26 2 9 0 18-1 27-2l14-42 20-6c11-4 23-9 34-14l18-10 40 20c14-11 26-24 38-38l-20-39 9-19c6-11 11-22 14-34l7-20 19-6 23-8c1-9 2-18 2-26z m-243 116c-65 0-118-53-118-118 0-65 53-117 118-117 64 0 117 52 117 117 0 65-53 118-117 118z m43-161c-12-11-27-17-42-17-16 0-31 6-42 17-11 12-18 26-18 42 0 16 6 31 18 42 11 11 26 18 42 18 15 0 30-7 42-18 11-11 17-26 17-42 0-16-6-30-17-42z m55-591l62 0c17 0 30-13 30-30 0-17-13-31-30-31l-323 0c-17 0-31 14-31 31 0 17 14 30 31 30l46 0 0 93 61 0 0-93 93 0 0 93 61 0 0-93 0 0z m346 270l0 377c0 21-17 38-38 38l-66 0c-3 21-9 42-15 62l96 0c43 0 77-35 77-77l0-500c0-43-34-77-77-77l-846 0c-43 0-77 34-77 77l0 500c0 42 34 77 77 77l97 0c-7-20-13-41-16-62l-58 0c-21 0-38-17-38-38l0-377 884 0z m0-62l-884 0 0-23c0-21 17-38 38-38l808 0c21 0 38 17 38 38l0 23z" horiz-adv-x="1000" />

<glyph glyph-name="import" unicode="&#xe879;" d="M810 496l192 192-162 162-192-192-130 130 0-418 417 0-125 126z m-245 179l83-83 192 192 96-96-192-192 79-79-258 0 0 258z m377-628l0 269 47 0 0-269c0-109-88-197-197-197l-595 0c-109 0-197 88-197 197l0 595c0 109 88 197 197 197l268 0 0-47-268 0c-83 0-150-67-150-150l0-595c0-83 67-150 150-150l595 0c83 0 150 67 150 150z m-762 429l204 0 0-47-204 0 0 47z m0-223l630 0 0-46-630 0 0 46z m0-172l630 0 0-47-630 0 0 47z" horiz-adv-x="1002" />

<glyph glyph-name="arc" unicode="&#xe87a;" d="M356 32c43 112 102 212 173 298-45 23-88 47-129 75-45 30-86 61-122 93 56-118 87-272 78-466l0 0z m-6-83c-1-8-2-15-2-22l-11 1-11 1c7 132-37 214-114 259-25 14-52 23-79 29-16 3-29 4-36 4l0 22c3 0 6-1 12-1 8-1 18-2 28-4 29-6 58-16 86-31 54-31 93-79 112-147 5 182-26 325-80 435-10 19-20 36-29 51-13 13-24 25-34 36-7 8-12 13-15 17l4 3c-2 2-4 4-5 5l14 17c5-5 15-14 27-29 8-11 17-22 25-35 3-2 5-5 7-7 46-44 100-89 163-130 42-28 85-53 131-75 9 10 18 20 27 30-13 68-23 139-29 209-5 46-7 90-9 130 0 3 0 5 0 8-2 11-4 22-6 32 0 4-1 8-1 12-1 3-2 6-2 8l1 0c-1 5-1 8-1 10l22 1c0-1 0-2 0-3l8 0c0 0 0 0 0-3 0-9 0-19 0-30 8-18 19-35 35-51 54-57 147-89 290-82l0-6c3 1 6 3 9 4 2 1 2 1 3 2 1 0 1 0 1 0 6-13 8-20 8-20-1-1-1-1-3-2-4-2-9-4-13-6-15-7-31-16-48-26-49-28-100-64-151-107 1-1 2-2 3-3 69-86 162-159 280-216l-3-6-1-19c-127 9-245 36-353 80 5-23 12-47 18-70 33-112 75-211 129-294l-18-12c-55 85-99 186-132 300-8 29-15 57-22 86-12 6-24 11-36 17-87-105-155-229-199-373l0 1 0 0z m213 389c6-3 11-5 16-7-1 6-3 13-4 20-4-4-8-9-12-13l0 0z m284 259c-131-2-221 31-275 89-4 4-7 8-11 12 1-5 3-9 4-13 21-72 55-143 106-210 51 44 103 80 153 109 8 5 15 9 23 13l0 0z m-254-226c3-17 7-34 11-51 97-41 202-68 314-80-103 54-185 122-248 201-1 1-2 2-2 3-26-23-51-48-75-73l0 0z m-5 26c21 22 43 44 66 64-42 56-73 115-96 174 2-15 3-30 4-46 6-64 15-129 26-192l0 0z m-519-218c-31 0-56 25-56 57 0 31 25 56 56 56 31 0 56-25 56-56 0-32-25-57-56-57z m461 559c-31 0-56 25-56 56 0 32 25 57 56 57 31 0 56-25 56-57 0-31-25-56-56-56z m202-879c-31 0-56 25-56 56 0 32 25 57 56 57 31 0 56-25 56-57 0-31-25-56-56-56z m241 304c-31 0-56 26-56 57 0 31 25 56 56 56 31 0 56-25 56-56 0-31-25-57-56-57z m-74 384c-30 0-55 25-55 56 0 31 25 57 55 57 31 0 56-26 56-57 0-31-25-56-56-56z m-735 20c-31 0-56 25-56 56 0 31 25 57 56 57 31 0 56-26 56-57 0-31-25-56-56-56z m162-713c-31 0-56 25-56 57 0 31 25 56 56 56 30 0 55-25 55-56 0-32-25-57-55-57z" horiz-adv-x="1043" />

</font>
</defs>
</svg>
